<svg xmlns="http://www.w3.org/2000/svg" width="1024" height="1024" viewBox="0 0 1024 1024">
<g>
<path d="M 748.07 870.49 C740.26,871.74 725.55,872.00 661.98,872.00 L 585.30 872.00 L 585.22 869.06 C585.15,866.59 585.57,866.07 587.80,865.81 C589.77,865.58 590.69,864.72 591.35,862.50 C592.78,857.67 593.55,856.58 596.00,856.00 C597.27,855.70 598.69,854.68 599.16,853.73 C599.62,852.78 600.38,851.21 600.85,850.25 C601.32,849.28 603.07,848.36 604.79,848.19 C607.43,847.93 607.93,847.43 608.19,844.79 C608.36,843.07 609.28,841.32 610.25,840.85 C611.21,840.38 612.79,839.61 613.75,839.14 C614.71,838.67 615.66,837.43 615.86,836.39 C616.43,833.36 618.04,832.00 621.06,832.00 C623.48,832.00 623.92,831.56 624.19,828.85 C624.48,825.90 625.13,825.24 630.00,822.99 C631.01,822.52 631.66,820.25 632.00,816.00 C632.57,808.82 634.46,806.56 638.02,808.78 C640.31,810.21 640.70,809.69 641.21,804.50 C641.45,801.98 641.98,801.45 644.50,801.21 C649.60,800.71 650.20,800.29 648.86,798.16 C646.53,794.42 650.42,790.53 654.16,792.86 C656.29,794.20 656.71,793.60 657.21,788.50 C657.45,785.98 657.98,785.45 660.50,785.21 C665.60,784.71 666.20,784.29 664.86,782.16 C662.53,778.42 666.42,774.53 670.16,776.86 C672.29,778.20 672.71,777.60 673.21,772.50 C673.45,769.98 673.98,769.45 676.50,769.21 C681.69,768.70 682.21,768.31 680.78,766.02 C679.20,763.49 680.65,760.79 684.03,759.99 C685.32,759.69 687.10,758.13 687.99,756.52 C688.88,754.92 690.93,752.87 692.55,751.97 C694.17,751.07 695.67,749.47 695.87,748.42 C696.07,747.36 697.03,745.38 698.00,744.00 C698.97,742.62 699.95,740.60 700.17,739.50 C700.45,738.13 701.28,737.57 702.77,737.73 C703.97,737.86 706.10,737.53 707.50,737.00 C709.75,736.15 709.89,735.80 708.78,734.01 C707.20,731.49 708.65,728.79 712.00,728.00 C714.29,727.46 715.32,726.22 716.42,722.68 C716.81,721.44 717.59,721.05 718.86,721.46 C719.89,721.78 721.93,721.60 723.39,721.04 C725.74,720.15 725.90,719.81 724.78,718.01 C723.20,715.49 724.65,712.79 728.00,712.00 C730.29,711.46 731.32,710.22 732.42,706.68 C732.81,705.44 733.59,705.05 734.86,705.46 C735.89,705.78 737.93,705.60 739.39,705.04 C741.74,704.15 741.90,703.81 740.78,702.01 C739.20,699.49 740.65,696.79 744.00,696.00 C746.29,695.46 747.32,694.22 748.42,690.68 C748.81,689.44 749.59,689.05 750.86,689.46 C751.89,689.78 753.93,689.60 755.39,689.04 C757.74,688.15 757.90,687.81 756.78,686.01 C755.20,683.49 756.65,680.79 760.00,680.00 C762.29,679.46 763.32,678.22 764.42,674.68 C764.81,673.44 765.59,673.05 766.86,673.46 C767.89,673.78 769.93,673.60 771.39,673.04 C773.74,672.15 773.90,671.81 772.78,670.01 C771.26,667.59 772.66,664.70 775.61,664.14 C778.34,663.63 780.00,662.03 780.00,659.91 C780.00,657.52 783.28,655.68 784.81,657.21 C785.64,658.04 786.12,657.85 786.64,656.49 C787.32,654.72 787.38,654.72 788.08,656.57 C788.64,658.06 788.97,657.53 789.53,654.25 C789.93,651.91 790.65,650.00 791.13,650.00 C791.62,650.00 791.98,687.16 791.95,734.75 C791.91,812.09 791.74,820.42 790.08,830.00 C789.08,835.78 787.74,841.79 787.11,843.36 C784.86,848.98 775.67,861.00 773.62,861.00 C773.06,861.00 771.46,862.06 770.05,863.36 C766.80,866.37 759.98,868.58 748.07,870.49 ZM 608.67 856.33 C609.03,856.70 609.37,856.99 609.42,856.98 C609.46,856.98 611.30,856.34 613.50,855.58 C620.19,853.26 619.06,848.00 611.88,848.00 C608.05,848.00 608.00,848.05 608.00,851.83 C608.00,853.94 608.30,855.97 608.67,856.33 ZM 624.67 840.33 C625.57,841.24 625.68,841.22 629.05,839.47 C633.90,836.97 632.40,832.00 626.80,832.00 C624.22,832.00 624.00,832.30 624.00,835.83 C624.00,837.94 624.30,839.97 624.67,840.33 ZM 753.04 710.55 C753.70,711.35 755.03,712.00 756.00,712.00 C759.98,712.00 761.21,706.79 757.75,704.61 C754.29,702.43 750.38,707.35 753.04,710.55 ZM 737.04 726.55 C737.70,727.35 739.03,728.00 740.00,728.00 C743.98,728.00 745.21,722.79 741.75,720.61 C738.29,718.43 734.38,723.35 737.04,726.55 ZM 721.04 742.55 C721.70,743.35 723.03,744.00 724.00,744.00 C727.98,744.00 729.21,738.79 725.75,736.61 C722.29,734.43 718.38,739.35 721.04,742.55 ZM 705.04 758.55 C705.70,759.35 707.03,760.00 708.00,760.00 C711.98,760.00 713.21,754.79 709.75,752.61 C706.29,750.43 702.38,755.35 705.04,758.55 ZM 689.04 774.55 C689.70,775.35 691.03,776.00 692.00,776.00 C695.98,776.00 697.21,770.79 693.75,768.61 C690.29,766.43 686.38,771.35 689.04,774.55 ZM 673.04 790.55 C673.70,791.35 675.03,792.00 676.00,792.00 C679.98,792.00 681.21,786.79 677.75,784.61 C674.29,782.43 670.38,787.35 673.04,790.55 ZM 657.04 806.55 C657.70,807.35 659.03,808.00 660.00,808.00 C663.98,808.00 665.21,802.79 661.75,800.61 C658.29,798.43 654.38,803.35 657.04,806.55 ZM 641.04 822.55 C641.70,823.35 643.03,824.00 644.00,824.00 C647.98,824.00 649.21,818.79 645.75,816.61 C642.29,814.43 638.38,819.35 641.04,822.55 ZM 769.18 694.78 C770.64,696.24 773.00,694.57 773.00,692.08 C773.00,689.48 770.92,687.82 769.32,689.15 C767.68,690.51 767.61,693.21 769.18,694.78 ZM 782.00 676.00 C782.00,677.82 782.41,678.86 783.00,678.50 C783.55,678.16 784.00,677.04 784.00,676.00 C784.00,674.96 783.55,673.84 783.00,673.50 C782.41,673.14 782.00,674.18 782.00,676.00 ZM 685.00 747.12 C685.00,747.61 684.42,748.00 683.71,748.00 C683.01,748.00 682.43,747.12 682.43,746.06 C682.43,744.58 682.74,744.37 683.71,745.18 C684.42,745.76 685.00,746.64 685.00,747.12 Z" fill="rgb(48,118,241)"/>
<path d="M 791.94 716.09 C791.88,677.79 791.55,650.00 791.13,650.00 C790.65,650.00 789.93,651.91 789.53,654.25 C788.97,657.53 788.64,658.06 788.08,656.57 C787.38,654.72 787.32,654.72 786.64,656.49 C786.12,657.85 785.64,658.04 784.81,657.21 C783.28,655.68 780.00,657.52 780.00,659.91 C780.00,662.03 778.34,663.63 775.61,664.14 C772.66,664.70 771.26,667.59 772.78,670.01 C773.90,671.81 773.74,672.15 771.39,673.04 C769.93,673.60 767.89,673.78 766.86,673.46 C765.59,673.05 764.81,673.44 764.42,674.68 C763.32,678.22 762.29,679.46 760.00,680.00 C756.65,680.79 755.20,683.49 756.78,686.01 C757.90,687.81 757.74,688.15 755.39,689.04 C753.93,689.60 751.89,689.78 750.86,689.46 C749.59,689.05 748.81,689.44 748.42,690.68 C747.32,694.22 746.29,695.46 744.00,696.00 C740.65,696.79 739.20,699.49 740.78,702.01 C741.90,703.81 741.74,704.15 739.39,705.04 C737.93,705.60 735.89,705.78 734.86,705.46 C733.59,705.05 732.81,705.44 732.42,706.68 C731.32,710.22 730.29,711.46 728.00,712.00 C724.65,712.79 723.20,715.49 724.78,718.01 C725.90,719.81 725.74,720.15 723.39,721.04 C721.93,721.60 719.89,721.78 718.86,721.46 C717.59,721.05 716.81,721.44 716.42,722.68 C715.32,726.22 714.29,727.46 712.00,728.00 C708.65,728.79 707.20,731.49 708.78,734.01 C709.89,735.80 709.75,736.15 707.50,737.00 C706.10,737.53 703.97,737.86 702.77,737.73 C701.28,737.57 700.45,738.13 700.17,739.50 C699.95,740.60 698.97,742.62 698.00,744.00 C697.03,745.38 696.07,747.36 695.87,748.42 C695.67,749.47 694.17,751.07 692.55,751.97 C690.93,752.87 688.88,754.92 687.99,756.52 C687.10,758.13 685.32,759.69 684.03,759.99 C680.65,760.79 679.20,763.49 680.78,766.02 C682.21,768.31 681.69,768.70 676.50,769.21 C673.98,769.45 673.45,769.98 673.21,772.50 C672.71,777.60 672.29,778.20 670.16,776.86 C666.42,774.53 662.53,778.42 664.86,782.16 C666.20,784.29 665.60,784.71 660.50,785.21 C657.98,785.45 657.45,785.98 657.21,788.50 C656.71,793.60 656.29,794.20 654.16,792.86 C650.42,790.53 646.53,794.42 648.86,798.16 C650.20,800.29 649.60,800.71 644.50,801.21 C641.98,801.45 641.45,801.98 641.21,804.50 C640.70,809.69 640.31,810.21 638.02,808.78 C634.46,806.56 632.57,808.82 632.00,816.00 C631.66,820.25 631.01,822.52 630.00,822.99 C625.13,825.24 624.48,825.90 624.19,828.85 C623.92,831.56 623.48,832.00 621.06,832.00 C618.04,832.00 616.43,833.36 615.86,836.39 C615.66,837.43 614.71,838.67 613.75,839.14 C612.79,839.61 611.21,840.38 610.25,840.85 C609.28,841.32 608.36,843.07 608.19,844.79 C607.93,847.43 607.43,847.93 604.79,848.19 C603.07,848.36 601.32,849.28 600.85,850.25 C600.38,851.21 599.62,852.78 599.16,853.73 C598.69,854.68 597.27,855.70 596.00,856.00 C593.55,856.58 592.78,857.67 591.35,862.50 C590.69,864.72 589.77,865.58 587.80,865.81 C585.57,866.07 585.15,866.59 585.22,869.06 L 585.30 871.97 C530.61,871.88 496.00,871.55 496.00,871.08 C496.00,870.58 496.56,869.94 497.25,869.66 C498.66,869.09 495.46,868.79 486.08,868.62 C478.79,868.48 476.68,866.57 482.70,865.55 C486.28,864.95 486.50,864.70 486.50,861.28 C486.50,858.03 486.84,857.56 489.73,856.80 C492.21,856.15 493.14,855.22 493.78,852.78 C494.41,850.34 495.34,849.41 497.78,848.78 C500.21,848.15 501.15,847.21 501.78,844.78 C502.41,842.34 503.34,841.41 505.79,840.78 C508.11,840.17 509.15,839.21 509.62,837.22 C509.97,835.73 511.28,833.38 512.53,832.00 C513.78,830.62 514.96,828.65 515.15,827.61 C515.34,826.57 516.17,825.40 517.00,825.01 C521.57,822.89 522.50,822.10 523.00,820.00 C523.50,817.90 524.45,817.10 528.98,815.00 C529.79,814.62 530.70,813.27 531.00,812.00 C531.30,810.73 532.32,809.31 533.27,808.84 L 536.73 807.16 C537.68,806.69 538.70,805.27 539.00,804.00 C539.30,802.73 540.21,801.38 541.02,801.00 C545.55,798.90 546.50,798.10 547.00,796.00 C547.30,794.73 548.21,793.38 549.02,793.00 C553.55,790.90 554.50,790.10 555.00,788.00 C555.30,786.73 556.32,785.31 557.27,784.84 L 560.73 783.16 C561.68,782.69 562.70,781.27 563.00,780.00 C563.30,778.73 564.32,777.31 565.27,776.84 L 568.73 775.16 C569.68,774.69 570.70,773.27 571.00,772.00 C571.30,770.73 572.32,769.31 573.27,768.84 L 576.73 767.16 C577.68,766.69 578.70,765.27 579.00,764.00 C579.30,762.73 580.32,761.31 581.27,760.84 C582.22,760.38 583.79,759.62 584.75,759.15 C585.71,758.68 586.64,757.35 586.81,756.20 C586.99,755.04 588.06,753.80 589.20,753.44 C590.83,752.92 590.97,752.60 589.88,751.91 C589.06,751.38 596.17,750.95 607.50,750.83 C621.98,750.67 624.36,750.49 617.50,750.06 C611.28,749.67 617.30,749.31 637.00,748.90 L 665.50 748.30 L 671.49 745.12 C674.79,743.37 679.44,740.04 681.83,737.72 C693.88,726.03 694.96,721.29 695.10,679.79 C695.15,663.05 695.56,650.62 696.00,652.00 C696.58,653.82 696.83,652.69 696.90,647.82 C696.99,641.95 697.30,640.91 699.50,639.18 C701.06,637.95 702.00,636.20 702.00,634.52 C702.00,630.95 704.30,631.73 705.13,635.58 L 705.76 638.50 L 705.88 635.32 C705.97,632.88 706.50,632.06 708.15,631.82 C710.10,631.53 710.87,630.60 713.00,626.02 C713.38,625.21 714.73,624.30 716.00,624.00 C717.27,623.70 718.62,622.79 719.00,621.98 C721.10,617.45 721.90,616.50 724.00,616.00 C726.10,615.50 726.90,614.55 729.00,610.02 C729.38,609.21 730.73,608.30 732.00,608.00 C734.10,607.50 734.90,606.55 737.00,602.02 C737.38,601.21 738.73,600.30 740.00,600.00 C741.27,599.70 742.62,598.79 743.00,597.98 C745.09,593.48 745.89,592.47 747.61,592.14 C750.36,591.62 752.00,590.02 752.00,587.86 C752.00,586.80 753.11,585.45 754.51,584.81 C756.00,584.13 757.35,582.43 757.82,580.63 C758.41,578.35 759.38,577.40 761.78,576.78 C764.21,576.15 765.15,575.21 765.78,572.78 C766.41,570.33 767.34,569.41 769.83,568.76 C772.36,568.11 773.20,567.26 773.67,564.88 C774.01,563.20 775.01,561.61 775.89,561.35 C780.08,560.10 784.00,557.52 784.00,556.00 C784.00,555.08 785.12,553.81 786.50,553.18 L 789.00 552.04 L 789.12 564.77 C789.18,571.77 789.44,576.71 789.69,575.75 C791.68,568.15 792.00,585.21 791.95,696.75 C791.95,703.56 791.94,710.00 791.94,716.09 ZM 608.67 856.33 C608.30,855.97 608.00,853.94 608.00,851.83 C608.00,848.05 608.05,848.00 611.88,848.00 C619.06,848.00 620.19,853.26 613.50,855.58 C611.30,856.34 609.46,856.98 609.42,856.98 C609.37,856.99 609.03,856.70 608.67,856.33 ZM 624.67 840.33 C624.30,839.97 624.00,837.94 624.00,835.83 C624.00,832.30 624.22,832.00 626.80,832.00 C632.40,832.00 633.90,836.97 629.05,839.47 C625.68,841.22 625.57,841.24 624.67,840.33 ZM 753.04 710.55 C750.38,707.35 754.29,702.43 757.75,704.61 C761.21,706.79 759.98,712.00 756.00,712.00 C755.03,712.00 753.70,711.35 753.04,710.55 ZM 737.04 726.55 C734.38,723.35 738.29,718.43 741.75,720.61 C745.21,722.79 743.98,728.00 740.00,728.00 C739.03,728.00 737.70,727.35 737.04,726.55 ZM 721.04 742.55 C718.38,739.35 722.29,734.43 725.75,736.61 C729.21,738.79 727.98,744.00 724.00,744.00 C723.03,744.00 721.70,743.35 721.04,742.55 ZM 705.04 758.55 C702.38,755.35 706.29,750.43 709.75,752.61 C713.21,754.79 711.98,760.00 708.00,760.00 C707.03,760.00 705.70,759.35 705.04,758.55 ZM 689.04 774.55 C686.38,771.35 690.29,766.43 693.75,768.61 C697.21,770.79 695.98,776.00 692.00,776.00 C691.03,776.00 689.70,775.35 689.04,774.55 ZM 673.04 790.55 C670.38,787.35 674.29,782.43 677.75,784.61 C681.21,786.79 679.98,792.00 676.00,792.00 C675.03,792.00 673.70,791.35 673.04,790.55 ZM 657.04 806.55 C654.38,803.35 658.29,798.43 661.75,800.61 C665.21,802.79 663.98,808.00 660.00,808.00 C659.03,808.00 657.70,807.35 657.04,806.55 ZM 641.04 822.55 C638.38,819.35 642.29,814.43 645.75,816.61 C649.21,818.79 647.98,824.00 644.00,824.00 C643.03,824.00 641.70,823.35 641.04,822.55 ZM 769.18 694.78 C767.61,693.21 767.68,690.51 769.32,689.15 C770.92,687.82 773.00,689.48 773.00,692.08 C773.00,694.57 770.64,696.24 769.18,694.78 ZM 782.00 676.00 C782.00,674.18 782.41,673.14 783.00,673.50 C783.55,673.84 784.00,674.96 784.00,676.00 C784.00,677.04 783.55,678.16 783.00,678.50 C782.41,678.86 782.00,677.82 782.00,676.00 ZM 685.00 747.12 C685.00,746.64 684.42,745.76 683.71,745.18 C682.74,744.37 682.43,744.58 682.43,746.06 C682.43,747.12 683.01,748.00 683.71,748.00 C684.42,748.00 685.00,747.61 685.00,747.12 Z" fill="rgb(52,124,243)"/>
<path d="M 654.97 748.52 L 637.00 748.90 C617.30,749.31 611.28,749.67 617.50,750.06 C624.36,750.49 621.98,750.67 607.50,750.83 C596.17,750.95 589.06,751.38 589.88,751.91 C590.97,752.60 590.83,752.92 589.20,753.44 C588.06,753.80 586.99,755.04 586.81,756.20 C586.64,757.35 585.71,758.68 584.75,759.15 C583.79,759.62 582.22,760.38 581.27,760.84 C580.32,761.31 579.30,762.73 579.00,764.00 C578.70,765.27 577.68,766.69 576.73,767.16 L 573.27 768.84 C572.32,769.31 571.30,770.73 571.00,772.00 C570.70,773.27 569.68,774.69 568.73,775.16 L 565.27 776.84 C564.32,777.31 563.30,778.73 563.00,780.00 C562.70,781.27 561.68,782.69 560.73,783.16 L 557.27 784.84 C556.32,785.31 555.30,786.73 555.00,788.00 C554.50,790.10 553.55,790.90 549.02,793.00 C548.21,793.38 547.30,794.73 547.00,796.00 C546.50,798.10 545.55,798.90 541.02,801.00 C540.21,801.38 539.30,802.73 539.00,804.00 C538.70,805.27 537.68,806.69 536.73,807.16 L 533.27 808.84 C532.32,809.31 531.30,810.73 531.00,812.00 C530.70,813.27 529.79,814.62 528.98,815.00 C524.45,817.10 523.50,817.90 523.00,820.00 C522.50,822.10 521.57,822.89 517.00,825.01 C516.17,825.40 515.34,826.57 515.15,827.61 C514.96,828.65 513.78,830.62 512.53,832.00 C511.28,833.38 509.97,835.73 509.62,837.22 C509.15,839.21 508.11,840.17 505.79,840.78 C503.34,841.41 502.41,842.34 501.78,844.78 C501.15,847.21 500.21,848.15 497.78,848.78 C495.34,849.41 494.41,850.34 493.78,852.78 C493.14,855.22 492.21,856.15 489.73,856.80 C486.84,857.56 486.50,858.03 486.50,861.28 C486.50,864.70 486.28,864.95 482.70,865.55 C476.68,866.57 478.79,868.48 486.08,868.62 C495.46,868.79 498.66,869.09 497.25,869.66 C496.56,869.94 496.00,870.58 496.00,871.08 C496.00,871.55 530.61,871.88 585.30,871.97 L 585.30 872.00 L 638.99 872.00 C526.69,872.49 368.23,872.04 367.68,870.60 C367.38,869.83 367.44,868.89 367.82,868.51 C368.19,868.14 368.50,867.36 368.50,866.78 C368.50,866.19 369.29,865.33 370.25,864.86 C371.21,864.39 372.78,863.62 373.73,863.16 C374.68,862.69 375.70,861.27 376.00,860.00 C376.30,858.73 377.32,857.31 378.27,856.84 L 381.73 855.16 C382.68,854.69 383.70,853.27 384.00,852.00 C384.30,850.73 385.21,849.38 386.02,849.00 C391.44,846.48 391.49,846.41 392.00,840.00 C392.34,835.75 392.99,833.48 394.00,833.01 C398.54,830.91 399.50,830.10 400.00,828.00 C400.50,825.90 401.45,825.10 405.98,823.00 C406.79,822.62 407.70,821.27 408.00,820.00 C408.30,818.73 409.32,817.31 410.27,816.84 L 413.73 815.16 C414.68,814.69 415.70,813.27 416.00,812.00 C416.50,809.90 417.45,809.10 421.98,807.00 C422.79,806.62 423.70,805.27 424.00,804.00 C424.30,802.73 425.32,801.31 426.27,800.84 L 429.73 799.16 C430.68,798.69 431.70,797.27 432.00,796.00 C432.30,794.73 433.32,793.31 434.27,792.84 L 437.73 791.16 C438.68,790.69 439.70,789.27 440.00,788.00 C440.30,786.73 441.32,785.31 442.27,784.84 L 445.73 783.16 C446.68,782.69 447.70,781.27 448.00,780.00 C448.30,778.73 449.32,777.31 450.27,776.84 C451.22,776.38 452.79,775.61 453.75,775.14 C454.71,774.67 455.67,773.43 455.87,772.39 C456.07,771.35 457.08,769.31 458.12,767.85 C459.15,766.39 460.00,764.56 460.00,763.80 C460.00,761.90 462.04,760.00 464.08,760.00 C466.33,760.00 467.79,758.08 468.26,754.48 C468.63,751.71 468.99,751.48 473.33,751.20 C475.90,751.03 478.00,750.48 478.00,749.99 C478.00,749.46 516.92,748.96 571.75,748.79 ZM 791.94 652.54 C791.86,580.63 791.38,569.29 789.69,575.75 C789.44,576.71 789.18,571.77 789.12,564.77 L 789.00 552.04 L 786.50 553.18 C785.12,553.81 784.00,555.08 784.00,556.00 C784.00,557.52 780.08,560.10 775.89,561.35 C775.01,561.61 774.01,563.20 773.67,564.88 C773.20,567.26 772.36,568.11 769.83,568.76 C767.34,569.41 766.41,570.33 765.78,572.78 C765.15,575.21 764.21,576.15 761.78,576.78 C759.38,577.40 758.41,578.35 757.82,580.63 C757.35,582.43 756.00,584.13 754.51,584.81 C753.11,585.45 752.00,586.80 752.00,587.86 C752.00,590.02 750.36,591.62 747.61,592.14 C745.89,592.47 745.09,593.48 743.00,597.98 C742.62,598.79 741.27,599.70 740.00,600.00 C738.73,600.30 737.38,601.21 737.00,602.02 C734.90,606.55 734.10,607.50 732.00,608.00 C730.73,608.30 729.38,609.21 729.00,610.02 C726.90,614.55 726.10,615.50 724.00,616.00 C721.90,616.50 721.10,617.45 719.00,621.98 C718.62,622.79 717.27,623.70 716.00,624.00 C714.73,624.30 713.38,625.21 713.00,626.02 C710.87,630.60 710.10,631.53 708.15,631.82 C706.50,632.06 705.97,632.88 705.88,635.32 L 705.76 638.50 L 705.13 635.58 C704.30,631.73 702.00,630.95 702.00,634.52 C702.00,636.20 701.06,637.95 699.50,639.18 C697.30,640.91 696.99,641.95 696.90,647.82 C696.83,652.69 696.58,653.82 696.00,652.00 C695.56,650.62 695.15,663.05 695.10,679.79 C695.04,696.98 694.82,707.86 693.73,715.54 C695.80,695.90 695.66,589.81 693.37,579.74 C691.69,572.36 687.65,565.28 682.19,560.18 C680.62,558.70 679.14,557.05 678.92,556.50 C678.69,555.95 676.70,554.50 674.50,553.28 C672.30,552.06 670.56,550.39 670.63,549.59 C670.70,548.78 669.29,547.42 667.49,546.56 C663.87,544.85 662.39,542.45 664.46,541.65 C665.23,541.36 666.02,541.97 666.31,543.07 C666.59,544.13 667.56,545.00 668.47,545.00 C669.41,545.00 669.83,544.53 669.44,543.90 C668.95,543.11 669.34,543.11 670.83,543.91 C673.54,545.36 679.77,542.55 680.20,539.69 C680.37,538.60 681.29,537.32 682.25,536.85 C683.21,536.38 684.78,535.62 685.73,535.16 C686.68,534.69 687.70,533.27 688.00,532.00 C688.30,530.73 689.32,529.31 690.27,528.84 L 693.73 527.16 C694.68,526.69 695.70,525.27 696.00,524.00 C696.30,522.73 697.32,521.31 698.27,520.84 L 701.73 519.16 C702.68,518.69 703.70,517.27 704.00,516.00 C704.30,514.73 705.32,513.31 706.27,512.84 L 709.73 511.16 C710.68,510.69 711.70,509.27 712.00,508.00 C712.30,506.73 713.32,505.31 714.27,504.84 L 717.73 503.16 C718.68,502.69 719.70,501.27 720.00,500.00 C720.30,498.73 721.32,497.31 722.27,496.84 L 725.73 495.16 C726.68,494.69 727.70,493.27 728.00,492.00 C728.30,490.73 729.32,489.31 730.27,488.84 C731.22,488.38 732.79,487.61 733.75,487.14 C734.71,486.67 735.67,485.43 735.87,484.39 C736.07,483.35 737.03,481.38 738.00,480.00 C738.97,478.62 739.93,476.65 740.13,475.61 C740.33,474.57 741.29,473.33 742.25,472.86 C743.21,472.39 744.78,471.62 745.73,471.16 C746.68,470.69 747.70,469.27 748.00,468.00 C748.30,466.73 749.32,465.31 750.27,464.84 L 753.73 463.16 C754.68,462.69 755.70,461.27 756.00,460.00 C756.30,458.73 757.32,457.31 758.27,456.84 L 761.73 455.16 C762.68,454.69 763.70,453.27 764.00,452.00 C764.30,450.73 765.32,449.31 766.27,448.84 L 769.73 447.16 C770.68,446.69 771.70,445.27 772.00,444.00 C772.30,442.73 773.32,441.31 774.27,440.84 C775.22,440.38 776.79,439.61 777.75,439.14 C778.71,438.67 779.66,437.43 779.86,436.39 C780.42,433.40 782.03,432.00 784.91,432.00 C787.19,432.00 787.61,431.54 787.82,428.79 C788.04,425.85 789.33,424.05 791.25,424.02 C791.66,424.02 791.98,512.99 791.95,621.75 C791.95,632.59 791.95,642.84 791.94,652.54 ZM 667.58 534.00 C666.80,534.00 665.94,534.56 665.66,535.25 C665.38,535.94 665.14,536.05 665.11,535.50 C665.04,533.97 667.61,530.94 668.35,531.68 C669.46,532.80 669.07,534.00 667.58,534.00 ZM 693.13 719.01 C691.80,725.47 689.55,729.44 685.78,733.67 C689.34,729.30 691.82,724.38 693.13,719.01 ZM 669.81 546.32 C669.01,546.64 669.25,546.87 670.42,546.92 C671.47,546.96 672.06,546.73 671.73,546.40 C671.40,546.06 670.53,546.03 669.81,546.32 Z" fill="rgb(57,129,243)"/>
<path d="M 791.95 586.43 C791.91,494.37 791.62,424.02 791.25,424.02 C789.33,424.05 788.04,425.85 787.82,428.79 C787.61,431.54 787.19,432.00 784.91,432.00 C782.03,432.00 780.42,433.40 779.86,436.39 C779.66,437.43 778.71,438.67 777.75,439.14 C776.79,439.61 775.22,440.38 774.27,440.84 C773.32,441.31 772.30,442.73 772.00,444.00 C771.70,445.27 770.68,446.69 769.73,447.16 L 766.27 448.84 C765.32,449.31 764.30,450.73 764.00,452.00 C763.70,453.27 762.68,454.69 761.73,455.16 L 758.27 456.84 C757.32,457.31 756.30,458.73 756.00,460.00 C755.70,461.27 754.68,462.69 753.73,463.16 L 750.27 464.84 C749.32,465.31 748.30,466.73 748.00,468.00 C747.70,469.27 746.68,470.69 745.73,471.16 C744.78,471.62 743.21,472.39 742.25,472.86 C741.29,473.33 740.33,474.57 740.13,475.61 C739.93,476.65 738.97,478.62 738.00,480.00 C737.03,481.38 736.07,483.35 735.87,484.39 C735.67,485.43 734.71,486.67 733.75,487.14 C732.79,487.61 731.22,488.38 730.27,488.84 C729.32,489.31 728.30,490.73 728.00,492.00 C727.70,493.27 726.68,494.69 725.73,495.16 L 722.27 496.84 C721.32,497.31 720.30,498.73 720.00,500.00 C719.70,501.27 718.68,502.69 717.73,503.16 L 714.27 504.84 C713.32,505.31 712.30,506.73 712.00,508.00 C711.70,509.27 710.68,510.69 709.73,511.16 L 706.27 512.84 C705.32,513.31 704.30,514.73 704.00,516.00 C703.70,517.27 702.68,518.69 701.73,519.16 L 698.27 520.84 C697.32,521.31 696.30,522.73 696.00,524.00 C695.70,525.27 694.68,526.69 693.73,527.16 L 690.27 528.84 C689.32,529.31 688.30,530.73 688.00,532.00 C687.70,533.27 686.68,534.69 685.73,535.16 C684.78,535.62 683.21,536.38 682.25,536.85 C681.29,537.32 680.37,538.60 680.20,539.69 C679.77,542.55 673.54,545.36 670.83,543.91 C669.34,543.11 668.95,543.11 669.44,543.90 C669.83,544.53 669.41,545.00 668.47,545.00 C667.56,545.00 666.59,544.13 666.31,543.07 C666.02,541.97 665.23,541.36 664.46,541.65 C663.86,541.88 663.56,542.25 663.52,542.69 C663.38,542.04 663.23,541.38 663.08,540.75 C662.49,538.14 661.53,533.89 660.95,531.32 C659.70,525.68 652.29,514.21 647.19,510.00 C645.16,508.33 640.69,505.51 637.25,503.73 C632.87,501.47 630.98,499.90 630.92,498.50 C630.67,493.16 629.09,479.17 628.44,476.57 C627.37,472.34 619.29,460.10 617.50,460.00 C616.04,459.92 610.45,454.00 611.83,454.00 C612.47,454.00 612.95,453.66 612.88,453.25 C612.82,452.84 612.87,452.16 613.01,451.75 C613.14,451.34 613.31,450.44 613.38,449.75 C613.44,449.06 614.94,448.36 616.69,448.19 C619.44,447.92 619.92,447.46 620.19,444.79 C620.36,443.07 621.28,441.32 622.25,440.85 C623.21,440.38 624.78,439.62 625.73,439.16 C626.68,438.69 627.70,437.27 628.00,436.00 C628.50,433.90 629.45,433.10 633.98,431.00 C634.79,430.62 635.70,429.27 636.00,428.00 C636.30,426.73 637.32,425.31 638.27,424.84 L 641.73 423.16 C642.68,422.69 643.70,421.27 644.00,420.00 C644.30,418.73 645.21,417.38 646.02,417.00 C650.55,414.90 651.50,414.10 652.00,412.00 C652.50,409.90 653.45,409.10 657.98,407.00 C658.79,406.62 659.70,405.27 660.00,404.00 C660.30,402.73 661.21,401.38 662.02,401.00 C666.55,398.90 667.50,398.10 668.00,396.00 C668.50,393.90 669.45,393.10 673.98,391.00 C674.79,390.62 675.70,389.27 676.00,388.00 C676.30,386.73 677.32,385.31 678.27,384.84 L 681.73 383.16 C682.68,382.69 683.70,381.27 684.00,380.00 C684.30,378.73 685.21,377.38 686.02,377.00 C690.55,374.90 691.50,374.10 692.00,372.00 C692.30,370.73 693.32,369.31 694.27,368.84 L 697.73 367.16 C698.68,366.69 699.70,365.27 700.00,364.00 C700.30,362.73 701.32,361.31 702.27,360.84 L 705.73 359.16 C706.68,358.69 707.70,357.27 708.00,356.00 C708.30,354.73 709.32,353.31 710.27,352.84 C711.22,352.38 712.79,351.62 713.75,351.15 C714.71,350.68 715.64,349.36 715.81,348.22 C716.19,345.70 718.52,343.59 719.96,344.47 C720.53,344.83 721.01,347.90 721.02,351.31 C721.02,354.71 721.42,358.11 721.89,358.85 C723.00,360.61 726.05,359.97 727.14,357.75 C727.61,356.79 728.38,355.22 728.84,354.27 C729.31,353.32 730.73,352.30 732.00,352.00 C733.27,351.70 734.69,350.68 735.16,349.73 C735.62,348.78 736.38,347.21 736.85,346.25 C737.32,345.29 738.64,344.36 739.78,344.19 C742.45,343.79 744.39,341.45 743.64,339.51 C743.21,338.39 741.44,337.99 736.78,337.97 C730.87,337.94 730.62,337.84 732.50,336.35 C733.94,335.22 734.14,334.63 733.21,334.29 C732.15,333.89 732.15,333.52 733.21,332.24 C734.23,331.00 734.24,330.59 733.25,330.25 C730.52,329.34 732.23,327.99 736.25,327.90 C739.86,327.82 740.12,327.68 738.00,327.00 C735.92,326.33 735.83,326.18 737.50,326.08 C739.16,325.99 739.24,325.81 738.00,325.02 C737.02,324.40 744.65,323.93 760.00,323.67 C772.92,323.45 785.41,322.98 787.75,322.64 L 792.00 322.00 L 791.95 570.75 ZM 654.97 748.52 L 571.75 748.79 C516.92,748.96 478.00,749.46 478.00,749.99 C478.00,750.48 475.90,751.03 473.33,751.20 C468.99,751.48 468.63,751.71 468.26,754.48 C467.79,758.08 466.33,760.00 464.08,760.00 C462.04,760.00 460.00,761.90 460.00,763.80 C460.00,764.56 459.15,766.39 458.12,767.85 C457.08,769.31 456.07,771.35 455.87,772.39 C455.67,773.43 454.71,774.67 453.75,775.14 C452.79,775.61 451.22,776.38 450.27,776.84 C449.32,777.31 448.30,778.73 448.00,780.00 C447.70,781.27 446.68,782.69 445.73,783.16 L 442.27 784.84 C441.32,785.31 440.30,786.73 440.00,788.00 C439.70,789.27 438.68,790.69 437.73,791.16 L 434.27 792.84 C433.32,793.31 432.30,794.73 432.00,796.00 C431.70,797.27 430.68,798.69 429.73,799.16 L 426.27 800.84 C425.32,801.31 424.30,802.73 424.00,804.00 C423.70,805.27 422.79,806.62 421.98,807.00 C417.45,809.10 416.50,809.90 416.00,812.00 C415.70,813.27 414.68,814.69 413.73,815.16 L 410.27 816.84 C409.32,817.31 408.30,818.73 408.00,820.00 C407.70,821.27 406.79,822.62 405.98,823.00 C401.45,825.10 400.50,825.90 400.00,828.00 C399.50,830.10 398.54,830.91 394.00,833.01 C392.99,833.48 392.34,835.75 392.00,840.00 C391.49,846.41 391.44,846.48 386.02,849.00 C385.21,849.38 384.30,850.73 384.00,852.00 C383.70,853.27 382.68,854.69 381.73,855.16 L 378.27 856.84 C377.32,857.31 376.30,858.73 376.00,860.00 C375.70,861.27 374.68,862.69 373.73,863.16 C372.78,863.62 371.21,864.39 370.25,864.86 C369.29,865.33 368.50,866.19 368.50,866.78 C368.50,867.36 368.19,868.14 367.82,868.51 C367.44,868.89 367.38,869.83 367.68,870.60 C367.90,871.19 394.75,871.61 434.09,871.87 C303.71,871.76 274.89,871.44 270.77,870.44 C258.80,867.54 246.08,859.70 244.79,854.42 C244.51,853.28 244.87,851.53 245.60,850.53 C246.47,849.34 246.61,848.15 246.02,847.03 C245.21,845.52 245.57,845.40 249.37,845.98 C253.46,846.60 256.00,845.54 256.00,843.22 C256.00,842.74 257.10,841.31 258.45,840.05 C259.79,838.79 261.03,836.84 261.20,835.73 C261.36,834.61 262.17,833.39 263.00,833.01 C267.54,830.91 268.50,830.10 269.00,828.00 C269.30,826.73 270.21,825.38 271.02,825.00 C275.55,822.90 276.50,822.10 277.00,820.00 C277.30,818.73 278.32,817.31 279.27,816.84 L 282.73 815.16 C283.68,814.69 284.70,813.27 285.00,812.00 C285.50,809.90 286.45,809.10 290.98,807.00 C291.79,806.62 292.70,805.27 293.00,804.00 C293.30,802.73 294.32,801.31 295.27,800.84 L 298.73 799.16 C299.68,798.69 300.70,797.27 301.00,796.00 C301.30,794.73 302.32,793.31 303.27,792.84 L 306.73 791.16 C307.68,790.69 308.70,789.27 309.00,788.00 C309.30,786.73 310.32,785.31 311.27,784.84 L 314.73 783.16 C315.68,782.69 316.70,781.27 317.00,780.00 C317.30,778.73 318.32,777.31 319.27,776.84 L 322.73 775.16 C323.68,774.69 324.70,773.27 325.00,772.00 C325.30,770.73 326.21,769.38 327.02,769.00 C331.55,766.90 332.50,766.10 333.00,764.00 C333.50,761.90 334.45,761.10 338.98,759.00 C339.79,758.62 340.70,757.27 341.00,756.00 C341.30,754.73 342.32,753.31 343.27,752.84 L 346.73 751.16 C347.68,750.69 348.70,749.27 349.00,748.00 C349.30,746.73 350.32,745.31 351.27,744.84 L 354.73 743.16 C355.68,742.69 356.70,741.27 357.00,740.00 C357.30,738.73 358.21,737.38 359.02,737.00 C363.52,734.91 364.53,734.11 364.85,732.39 C365.04,731.35 366.32,729.31 367.69,727.85 C369.06,726.39 370.02,724.37 369.83,723.35 C369.52,721.73 368.46,721.50 361.49,721.50 L 353.50 721.50 L 353.20 727.96 C353.03,731.52 352.43,734.98 351.86,735.67 C351.28,736.37 347.91,737.04 344.16,737.21 L 337.50 737.50 L 337.20 743.96 C337.03,747.52 336.41,751.00 335.82,751.71 C334.74,753.01 323.91,753.58 322.73,752.39 C322.39,752.06 322.61,750.82 323.21,749.64 C323.82,748.46 324.62,746.84 325.00,746.02 C325.38,745.21 326.73,744.30 328.00,744.00 C329.27,743.70 330.69,742.68 331.16,741.73 L 332.84 738.27 C333.31,737.32 334.73,736.30 336.00,736.00 C337.27,735.70 338.69,734.68 339.16,733.73 L 340.84 730.27 C341.31,729.32 342.73,728.30 344.00,728.00 C345.27,727.70 346.62,726.79 347.00,725.98 C349.10,721.45 349.90,720.50 352.00,720.00 C353.27,719.70 354.69,718.68 355.16,717.73 L 356.84 714.27 C357.31,713.32 358.77,712.29 360.09,711.98 C361.61,711.63 363.17,710.02 364.30,707.63 C365.89,704.27 366.29,703.99 367.80,705.17 C368.73,705.90 369.99,707.13 370.60,707.90 C371.20,708.67 372.23,708.98 372.87,708.58 C373.58,708.14 373.94,708.38 373.77,709.18 C373.62,709.90 374.10,710.38 374.82,710.23 C375.55,710.07 375.90,710.35 375.60,710.85 C374.27,712.99 383.75,718.89 386.15,717.41 C386.62,717.12 387.00,717.36 387.00,717.94 C387.00,718.52 388.74,719.00 390.86,719.00 C394.56,719.00 394.90,719.30 399.32,726.27 C401.85,730.26 405.40,734.95 407.21,736.69 C411.98,741.28 422.09,746.68 428.20,747.89 C431.78,748.61 471.22,748.88 549.50,748.72 L 655.05 748.52 ZM 625.00 461.24 C625.00,461.66 625.87,462.00 626.93,462.00 C628.14,462.00 628.98,461.20 629.18,459.85 C629.36,458.67 630.29,457.32 631.25,456.85 C632.21,456.38 633.79,455.61 634.75,455.14 C635.71,454.67 636.66,453.49 636.85,452.51 C637.68,448.30 628.25,447.45 625.59,451.50 C624.69,452.88 623.03,454.00 621.91,454.00 C619.08,454.00 619.72,458.16 622.75,459.49 C623.99,460.03 625.00,460.82 625.00,461.24 ZM 641.48 445.77 C641.97,447.75 642.34,447.96 643.54,446.97 C644.34,446.30 645.00,444.99 645.00,444.05 C645.00,443.12 646.12,441.29 647.50,440.00 C650.70,437.00 650.73,434.22 647.58,433.43 C642.71,432.21 641.52,433.14 641.19,438.44 C641.02,441.15 641.15,444.45 641.48,445.77 ZM 319.80 767.80 C318.57,769.03 311.81,769.48 310.73,768.39 C310.39,768.06 310.51,767.05 310.99,766.14 C311.46,765.24 312.10,763.70 312.40,762.73 C312.71,761.75 313.75,760.71 314.73,760.40 C315.70,760.10 317.24,759.46 318.14,758.99 C319.05,758.51 320.06,758.39 320.39,758.73 C321.48,759.81 321.03,766.57 319.80,767.80 ZM 303.80 783.80 C302.57,785.03 295.81,785.48 294.73,784.39 C294.39,784.06 294.51,783.05 294.99,782.14 C295.46,781.24 296.10,779.70 296.40,778.73 C296.71,777.75 297.75,776.71 298.73,776.40 C299.70,776.10 301.24,775.46 302.14,774.99 C303.05,774.51 304.06,774.39 304.39,774.73 C305.48,775.81 305.03,782.57 303.80,783.80 ZM 287.80 799.80 C286.57,801.03 279.81,801.48 278.73,800.39 C278.39,800.06 278.51,799.05 278.99,798.14 C279.46,797.24 280.10,795.70 280.40,794.73 C280.71,793.75 281.75,792.71 282.73,792.40 C283.70,792.10 285.24,791.46 286.14,790.99 C287.05,790.51 288.06,790.39 288.39,790.73 C289.48,791.81 289.03,798.57 287.80,799.80 ZM 271.80 815.80 C270.57,817.03 263.81,817.48 262.73,816.39 C262.39,816.06 262.51,815.05 262.99,814.14 C263.46,813.24 264.10,811.70 264.40,810.73 C264.71,809.75 265.75,808.71 266.73,808.40 C267.70,808.10 269.24,807.46 270.14,806.99 C271.05,806.51 272.06,806.39 272.39,806.73 C273.48,807.81 273.03,814.57 271.80,815.80 ZM 673.38 406.39 C673.96,408.68 674.13,408.72 677.74,407.48 C683.83,405.39 683.14,401.05 676.72,401.02 C673.60,401.00 672.48,402.80 673.38,406.39 ZM 657.38 422.39 C657.96,424.68 658.13,424.72 661.74,423.48 C667.83,421.39 667.14,417.05 660.72,417.02 C657.60,417.00 656.48,418.80 657.38,422.39 ZM 705.39 373.43 C706.08,376.19 708.74,376.86 710.80,374.80 C712.86,372.74 712.19,370.08 709.43,369.39 C706.15,368.57 704.57,370.15 705.39,373.43 ZM 689.39 389.43 C690.08,392.19 692.74,392.86 694.80,390.80 C696.86,388.74 696.19,386.08 693.43,385.39 C690.15,384.57 688.57,386.15 689.39,389.43 ZM 663.71 543.52 C664.18,544.49 665.52,545.63 667.49,546.56 C669.29,547.42 670.70,548.78 670.63,549.59 C670.56,550.39 672.30,552.06 674.50,553.28 C675.88,554.04 677.17,554.90 678.01,555.57 C675.80,553.85 670.35,551.00 668.86,550.98 C666.72,550.96 664.99,549.53 664.56,547.43 C664.42,546.74 664.09,545.22 663.71,543.52 ZM 244.80 849.63 C242.44,851.11 241.35,850.80 241.50,848.69 C241.70,846.10 243.32,845.47 244.90,847.38 C245.84,848.51 245.81,849.00 244.80,849.63 ZM 667.58 534.00 C669.07,534.00 669.46,532.80 668.35,531.68 C667.61,530.94 665.04,533.97 665.11,535.50 C665.14,536.05 665.38,535.94 665.66,535.25 C665.94,534.56 666.80,534.00 667.58,534.00 ZM 623.74 456.31 C625.30,457.87 625.30,458.00 623.77,458.00 C621.95,458.00 620.44,456.23 621.42,455.24 C621.77,454.90 622.81,455.38 623.74,456.31 ZM 235.00 827.44 C235.00,828.30 234.55,829.00 234.00,829.00 C233.45,829.00 233.00,828.58 233.00,828.06 C233.00,827.54 233.45,826.84 234.00,826.50 C234.55,826.16 235.00,826.58 235.00,827.44 ZM 242.51 848.01 C242.84,848.56 243.54,849.00 244.06,849.00 C245.50,849.00 245.18,848.28 243.45,847.62 C242.56,847.28 242.16,847.44 242.51,848.01 ZM 669.81 546.32 C670.53,546.03 671.40,546.06 671.73,546.40 C672.06,546.73 671.47,546.96 670.42,546.92 C669.25,546.87 669.01,546.64 669.81,546.32 Z" fill="rgb(62,135,245)"/>
<path d="M 663.71 543.52 C664.09,545.22 664.42,546.74 664.56,547.43 C664.82,548.71 665.57,549.74 666.59,550.35 C666.39,550.30 666.20,550.25 666.00,550.21 L 662.50 549.38 L 662.00 539.94 C661.84,537.00 661.61,534.59 661.20,532.42 C661.78,534.99 662.57,538.48 663.08,540.75 C663.23,541.38 663.38,542.04 663.52,542.69 C663.50,542.94 663.57,543.22 663.71,543.52 ZM 642.04 506.46 C644.12,507.75 646.04,509.06 647.19,510.00 C648.58,511.15 650.15,512.84 651.71,514.81 C649.29,512.01 645.75,508.99 642.04,506.46 ZM 668.69 550.98 C668.75,550.98 668.81,550.98 668.86,550.98 C670.35,551.00 675.80,553.85 678.01,555.57 C678.45,555.93 678.76,556.23 678.88,556.44 C676.91,554.56 672.79,552.35 668.69,550.98 ZM 630.91 498.63 C630.80,495.90 630.31,490.72 629.78,486.02 C630.31,490.65 630.79,495.73 630.92,498.50 C630.97,499.57 632.08,500.74 634.56,502.24 C634.40,502.17 634.25,502.10 634.09,502.04 C632.07,501.20 630.97,500.02 630.91,498.63 ZM 680.03 557.97 C680.62,558.64 681.39,559.43 682.19,560.18 C682.41,560.38 682.63,560.60 682.85,560.81 C682.72,560.74 682.59,560.67 682.47,560.63 C681.69,560.33 680.63,559.16 680.03,557.97 Z" fill="rgb(59,122,224)"/>
<path d="M 792.00 321.80 L 792.00 322.00 L 787.75 322.64 C785.41,322.98 772.92,323.45 760.00,323.67 C744.65,323.93 737.02,324.40 738.00,325.02 C739.24,325.81 739.16,325.99 737.50,326.08 C735.83,326.18 735.92,326.33 738.00,327.00 C740.12,327.68 739.86,327.82 736.25,327.90 C732.23,327.99 730.52,329.34 733.25,330.25 C734.24,330.59 734.23,331.00 733.21,332.24 C732.15,333.52 732.15,333.89 733.21,334.29 C734.14,334.63 733.94,335.22 732.50,336.35 C730.62,337.84 730.87,337.94 736.78,337.97 C741.44,337.99 743.21,338.39 743.64,339.51 C744.39,341.45 742.45,343.79 739.78,344.19 C738.64,344.36 737.32,345.29 736.85,346.25 C736.38,347.21 735.62,348.78 735.16,349.73 C734.69,350.68 733.27,351.70 732.00,352.00 C730.73,352.30 729.31,353.32 728.84,354.27 C728.38,355.22 727.61,356.79 727.14,357.75 C726.05,359.97 723.00,360.61 721.89,358.85 C721.42,358.11 721.02,354.71 721.02,351.31 C721.01,347.90 720.53,344.83 719.96,344.47 C718.52,343.59 716.19,345.70 715.81,348.22 C715.64,349.36 714.71,350.68 713.75,351.15 C712.79,351.62 711.22,352.38 710.27,352.84 C709.32,353.31 708.30,354.73 708.00,356.00 C707.70,357.27 706.68,358.69 705.73,359.16 L 702.27 360.84 C701.32,361.31 700.30,362.73 700.00,364.00 C699.70,365.27 698.68,366.69 697.73,367.16 L 694.27 368.84 C693.32,369.31 692.30,370.73 692.00,372.00 C691.50,374.10 690.55,374.90 686.02,377.00 C685.21,377.38 684.30,378.73 684.00,380.00 C683.70,381.27 682.68,382.69 681.73,383.16 L 678.27 384.84 C677.32,385.31 676.30,386.73 676.00,388.00 C675.70,389.27 674.79,390.62 673.98,391.00 C669.45,393.10 668.50,393.90 668.00,396.00 C667.50,398.10 666.55,398.90 662.02,401.00 C661.21,401.38 660.30,402.73 660.00,404.00 C659.70,405.27 658.79,406.62 657.98,407.00 C653.45,409.10 652.50,409.90 652.00,412.00 C651.50,414.10 650.55,414.90 646.02,417.00 C645.21,417.38 644.30,418.73 644.00,420.00 C643.70,421.27 642.68,422.69 641.73,423.16 L 638.27 424.84 C637.32,425.31 636.30,426.73 636.00,428.00 C635.70,429.27 634.79,430.62 633.98,431.00 C629.45,433.10 628.50,433.90 628.00,436.00 C627.70,437.27 626.68,438.69 625.73,439.16 C624.78,439.62 623.21,440.38 622.25,440.85 C621.28,441.32 620.36,443.07 620.19,444.79 C619.92,447.46 619.44,447.92 616.69,448.19 C614.94,448.36 613.44,449.06 613.38,449.75 C613.31,450.44 613.14,451.34 613.01,451.75 C612.87,452.16 612.82,452.84 612.88,453.25 C612.95,453.66 612.47,454.00 611.83,454.00 C610.45,454.00 616.04,459.92 617.50,460.00 C619.29,460.10 627.37,472.34 628.44,476.57 C628.75,477.82 629.28,481.72 629.78,486.02 C630.18,489.56 630.56,493.36 630.77,496.19 C630.68,495.46 630.60,494.63 630.51,493.67 C630.14,489.73 629.20,484.30 628.43,481.60 C625.46,471.28 615.59,460.05 605.22,455.18 L 599.50 452.50 L 551.50 451.85 C498.62,451.12 469.87,450.32 463.00,449.36 C458.23,448.70 458.34,448.52 464.19,447.55 C467.22,447.04 467.93,446.47 468.19,444.32 C468.36,442.88 469.17,441.39 470.00,441.01 C474.53,438.92 475.50,438.10 476.00,436.00 C476.50,433.90 477.45,433.10 481.98,431.00 C482.79,430.62 483.70,429.27 484.00,428.00 C484.30,426.73 485.21,425.38 486.02,425.00 C490.55,422.90 491.50,422.10 492.00,420.00 C492.30,418.73 493.32,417.31 494.27,416.84 L 497.73 415.16 C498.68,414.69 499.70,413.27 500.00,412.00 C500.30,410.73 501.32,409.31 502.27,408.84 L 505.73 407.16 C506.68,406.69 507.70,405.27 508.00,404.00 C508.30,402.73 509.21,401.38 510.02,401.00 C514.55,398.90 515.50,398.10 516.00,396.00 C516.50,393.90 517.45,393.10 521.98,391.00 C522.79,390.62 523.70,389.27 524.00,388.00 C524.30,386.73 525.21,385.38 526.02,385.00 C530.55,382.90 531.50,382.10 532.00,380.00 C532.30,378.73 533.32,377.31 534.27,376.84 L 537.73 375.16 C538.68,374.69 539.70,373.27 540.00,372.00 C540.30,370.73 541.32,369.31 542.27,368.84 L 545.73 367.16 C546.68,366.69 547.70,365.27 548.00,364.00 C548.30,362.73 549.32,361.31 550.27,360.84 L 553.73 359.16 C554.68,358.69 555.70,357.27 556.00,356.00 C556.30,354.73 557.21,353.38 558.02,353.00 C562.55,350.90 563.50,350.10 564.00,348.00 C564.30,346.73 565.32,345.31 566.27,344.84 L 569.73 343.16 C570.68,342.69 571.70,341.27 572.00,340.00 C572.30,338.73 573.32,337.31 574.27,336.84 L 577.73 335.16 C578.68,334.69 579.70,333.27 580.00,332.00 C580.30,330.73 581.21,329.38 582.02,329.00 C586.55,326.90 587.50,326.10 588.00,324.00 C588.30,322.73 589.32,321.31 590.27,320.84 L 593.73 319.16 C594.68,318.69 595.70,317.27 596.00,316.00 C596.50,313.90 597.46,313.09 602.00,310.99 C602.83,310.61 603.65,309.30 603.83,308.09 C604.01,306.87 604.80,305.63 605.58,305.33 C606.36,305.03 607.00,304.16 607.00,303.39 C607.00,301.65 611.64,301.52 612.34,303.25 C612.62,303.94 612.88,303.60 612.94,302.50 C613.01,301.03 613.25,300.85 613.87,301.82 C614.83,303.34 615.85,296.63 616.94,281.50 L 617.66 271.50 L 617.83 283.81 C617.94,291.72 618.36,295.90 619.00,295.50 C619.65,295.10 620.00,299.62 620.00,308.32 C620.00,317.86 620.36,322.05 621.25,322.77 C621.94,323.34 625.20,323.66 628.50,323.51 C631.80,323.35 669.94,322.90 713.25,322.51 ZM 235.00 827.44 C235.00,826.58 234.55,826.16 234.00,826.50 C233.77,826.64 233.57,826.84 233.40,827.06 C232.33,815.50 232.04,794.70 232.03,752.18 C232.00,698.09 232.20,689.66 233.50,688.36 C234.52,687.34 235.05,684.55 235.16,679.68 L 235.33 672.50 L 235.91 678.00 C236.46,683.13 236.59,683.35 237.80,681.22 C238.52,679.96 239.81,679.06 240.67,679.22 C242.22,679.50 243.35,678.15 244.41,674.73 C244.71,673.75 245.75,672.71 246.73,672.41 C250.21,671.33 251.46,670.28 252.00,668.00 C252.30,666.73 253.32,665.31 254.27,664.84 L 257.73 663.16 C258.68,662.69 259.70,661.27 260.00,660.00 C260.30,658.73 261.21,657.38 262.02,657.00 C266.55,654.90 267.50,654.10 268.00,652.00 C268.50,649.90 269.45,649.10 273.98,647.00 C274.79,646.62 275.70,645.27 276.00,644.00 C276.30,642.73 277.21,641.38 278.02,641.00 C282.55,638.90 283.50,638.10 284.00,636.00 C284.30,634.73 285.21,633.38 286.02,633.00 C290.55,630.90 291.50,630.10 292.00,628.00 C292.30,626.73 293.32,625.31 294.27,624.84 L 297.73 623.16 C298.68,622.69 299.70,621.27 300.00,620.00 C300.30,618.73 301.32,617.31 302.27,616.84 L 305.73 615.16 C306.68,614.69 307.70,613.27 308.00,612.00 C308.30,610.73 309.21,609.38 310.02,609.00 C314.67,606.84 315.55,606.02 316.00,603.39 C316.30,601.66 317.41,600.10 318.75,599.51 C320.86,598.59 321.01,597.87 321.18,588.01 C321.35,577.78 321.37,577.68 322.00,584.50 L 322.65 591.50 L 323.37 579.50 L 324.41 590.50 L 325.65 576.50 L 325.82 584.19 C325.92,588.42 326.45,592.16 327.00,592.50 C327.61,592.88 328.00,600.49 328.00,612.00 C328.00,624.72 328.36,631.11 329.11,631.57 C329.88,632.04 329.81,632.50 328.88,633.07 C327.27,634.07 328.86,641.10 332.15,647.50 C336.11,655.19 350.22,667.80 357.80,670.42 L 361.50 671.70 L 362.18 679.81 C363.12,691.00 367.18,699.36 375.91,708.08 C380.91,713.07 384.02,715.25 388.77,717.08 C390.88,717.90 392.32,718.51 393.51,719.26 C392.79,719.03 391.98,719.00 390.86,719.00 C388.74,719.00 387.00,718.52 387.00,717.94 C387.00,717.36 386.62,717.12 386.15,717.41 C383.75,718.89 374.27,712.99 375.60,710.85 C375.90,710.35 375.55,710.07 374.82,710.23 C374.10,710.38 373.62,709.90 373.77,709.18 C373.94,708.38 373.58,708.14 372.87,708.58 C372.23,708.98 371.20,708.67 370.60,707.90 C369.99,707.13 368.73,705.90 367.80,705.17 C366.29,703.99 365.89,704.27 364.30,707.63 C363.17,710.02 361.61,711.63 360.09,711.98 C358.77,712.29 357.31,713.32 356.84,714.27 L 355.16 717.73 C354.69,718.68 353.27,719.70 352.00,720.00 C349.90,720.50 349.10,721.45 347.00,725.98 C346.62,726.79 345.27,727.70 344.00,728.00 C342.73,728.30 341.31,729.32 340.84,730.27 L 339.16 733.73 C338.69,734.68 337.27,735.70 336.00,736.00 C334.73,736.30 333.31,737.32 332.84,738.27 L 331.16 741.73 C330.69,742.68 329.27,743.70 328.00,744.00 C326.73,744.30 325.38,745.21 325.00,746.02 C324.62,746.84 323.82,748.46 323.21,749.64 C322.61,750.82 322.39,752.06 322.73,752.39 C323.91,753.58 334.74,753.01 335.82,751.71 C336.41,751.00 337.03,747.52 337.20,743.96 L 337.50 737.50 L 344.16 737.21 C347.91,737.04 351.28,736.37 351.86,735.67 C352.43,734.98 353.03,731.52 353.20,727.96 L 353.50 721.50 L 361.49 721.50 C368.46,721.50 369.52,721.73 369.83,723.35 C370.02,724.37 369.06,726.39 367.69,727.85 C366.32,729.31 365.04,731.35 364.85,732.39 C364.53,734.11 363.52,734.91 359.02,737.00 C358.21,737.38 357.30,738.73 357.00,740.00 C356.70,741.27 355.68,742.69 354.73,743.16 L 351.27 744.84 C350.32,745.31 349.30,746.73 349.00,748.00 C348.70,749.27 347.68,750.69 346.73,751.16 L 343.27 752.84 C342.32,753.31 341.30,754.73 341.00,756.00 C340.70,757.27 339.79,758.62 338.98,759.00 C334.45,761.10 333.50,761.90 333.00,764.00 C332.50,766.10 331.55,766.90 327.02,769.00 C326.21,769.38 325.30,770.73 325.00,772.00 C324.70,773.27 323.68,774.69 322.73,775.16 L 319.27 776.84 C318.32,777.31 317.30,778.73 317.00,780.00 C316.70,781.27 315.68,782.69 314.73,783.16 L 311.27 784.84 C310.32,785.31 309.30,786.73 309.00,788.00 C308.70,789.27 307.68,790.69 306.73,791.16 L 303.27 792.84 C302.32,793.31 301.30,794.73 301.00,796.00 C300.70,797.27 299.68,798.69 298.73,799.16 L 295.27 800.84 C294.32,801.31 293.30,802.73 293.00,804.00 C292.70,805.27 291.79,806.62 290.98,807.00 C286.45,809.10 285.50,809.90 285.00,812.00 C284.70,813.27 283.68,814.69 282.73,815.16 L 279.27 816.84 C278.32,817.31 277.30,818.73 277.00,820.00 C276.50,822.10 275.55,822.90 271.02,825.00 C270.21,825.38 269.30,826.73 269.00,828.00 C268.50,830.10 267.54,830.91 263.00,833.01 C262.17,833.39 261.36,834.61 261.20,835.73 C261.03,836.84 259.79,838.79 258.45,840.05 C257.10,841.31 256.00,842.74 256.00,843.22 C256.00,845.54 253.46,846.60 249.37,845.98 C245.57,845.40 245.21,845.52 246.02,847.03 C246.61,848.15 246.47,849.34 245.60,850.53 C244.87,851.53 244.51,853.28 244.79,854.42 C245.05,855.51 245.81,856.71 246.94,857.95 C241.98,852.99 238.19,846.58 235.48,838.59 C234.68,836.25 234.06,833.32 233.58,828.91 C233.71,828.97 233.85,829.00 234.00,829.00 C234.55,829.00 235.00,828.30 235.00,827.44 ZM 625.00 461.24 C625.00,460.82 623.99,460.03 622.75,459.49 C619.72,458.16 619.08,454.00 621.91,454.00 C623.03,454.00 624.69,452.88 625.59,451.50 C628.25,447.45 637.68,448.30 636.85,452.51 C636.66,453.49 635.71,454.67 634.75,455.14 C633.79,455.61 632.21,456.38 631.25,456.85 C630.29,457.32 629.36,458.67 629.18,459.85 C628.98,461.20 628.14,462.00 626.93,462.00 C625.87,462.00 625.00,461.66 625.00,461.24 ZM 641.48 445.77 C641.15,444.45 641.02,441.15 641.19,438.44 C641.52,433.14 642.71,432.21 647.58,433.43 C650.73,434.22 650.70,437.00 647.50,440.00 C646.12,441.29 645.00,443.12 645.00,444.05 C645.00,444.99 644.34,446.30 643.54,446.97 C642.34,447.96 641.97,447.75 641.48,445.77 ZM 319.80 767.80 C321.03,766.57 321.48,759.81 320.39,758.73 C320.06,758.39 319.05,758.51 318.14,758.99 C317.24,759.46 315.70,760.10 314.73,760.40 C313.75,760.71 312.71,761.75 312.40,762.73 C312.10,763.70 311.46,765.24 310.99,766.14 C310.51,767.05 310.39,768.06 310.73,768.39 C311.81,769.48 318.57,769.03 319.80,767.80 ZM 303.80 783.80 C305.03,782.57 305.48,775.81 304.39,774.73 C304.06,774.39 303.05,774.51 302.14,774.99 C301.24,775.46 299.70,776.10 298.73,776.40 C297.75,776.71 296.71,777.75 296.40,778.73 C296.10,779.70 295.46,781.24 294.99,782.14 C294.51,783.05 294.39,784.06 294.73,784.39 C295.81,785.48 302.57,785.03 303.80,783.80 ZM 287.80 799.80 C289.03,798.57 289.48,791.81 288.39,790.73 C288.06,790.39 287.05,790.51 286.14,790.99 C285.24,791.46 283.70,792.10 282.73,792.40 C281.75,792.71 280.71,793.75 280.40,794.73 C280.10,795.70 279.46,797.24 278.99,798.14 C278.51,799.05 278.39,800.06 278.73,800.39 C279.81,801.48 286.57,801.03 287.80,799.80 ZM 271.80 815.80 C273.03,814.57 273.48,807.81 272.39,806.73 C272.06,806.39 271.05,806.51 270.14,806.99 C269.24,807.46 267.70,808.10 266.73,808.40 C265.75,808.71 264.71,809.75 264.40,810.73 C264.10,811.70 263.46,813.24 262.99,814.14 C262.51,815.05 262.39,816.06 262.73,816.39 C263.81,817.48 270.57,817.03 271.80,815.80 ZM 673.38 406.39 C672.48,402.80 673.60,401.00 676.72,401.02 C683.14,401.05 683.83,405.39 677.74,407.48 C674.13,408.72 673.96,408.68 673.38,406.39 ZM 657.38 422.39 C656.48,418.80 657.60,417.00 660.72,417.02 C667.14,417.05 667.83,421.39 661.74,423.48 C658.13,424.72 657.96,424.68 657.38,422.39 ZM 705.39 373.43 C704.57,370.15 706.15,368.57 709.43,369.39 C712.19,370.08 712.86,372.74 710.80,374.80 C708.74,376.86 706.08,376.19 705.39,373.43 ZM 689.39 389.43 C688.57,386.15 690.15,384.57 693.43,385.39 C696.19,386.08 696.86,388.74 694.80,390.80 C692.74,392.86 690.08,392.19 689.39,389.43 ZM 244.80 849.63 C245.81,849.00 245.84,848.51 244.90,847.38 C243.32,845.47 241.70,846.10 241.50,848.69 C241.35,850.80 242.44,851.11 244.80,849.63 ZM 623.74 456.31 C622.81,455.38 621.77,454.90 621.42,455.24 C620.44,456.23 621.95,458.00 623.77,458.00 C625.30,458.00 625.30,457.87 623.74,456.31 ZM 309.38 871.53 C333.76,871.72 372.65,871.82 434.09,871.87 C435.19,871.88 436.30,871.89 437.42,871.90 C373.87,871.87 334.40,871.83 309.38,871.53 ZM 242.51 848.01 C242.16,847.44 242.56,847.28 243.45,847.62 C245.18,848.28 245.50,849.00 244.06,849.00 C243.54,849.00 242.84,848.56 242.51,848.01 ZM 250.51 861.11 C254.84,864.36 261.07,867.52 267.41,869.51 C265.09,869.04 263.62,868.48 262.19,867.82 C261.07,867.29 259.98,866.69 258.54,866.02 C255.62,864.65 252.94,863.02 250.51,861.11 ZM 693.37 579.74 C692.53,576.06 690.54,571.49 688.38,567.73 C690.69,571.43 692.42,575.53 693.37,579.74 ZM 632.12 500.88 C632.60,501.29 633.22,501.66 633.97,501.99 C633.14,501.64 632.56,501.34 632.12,500.88 Z" fill="rgb(68,142,247)"/>
<path d="M 775.18 321.95 L 713.25 322.51 C669.94,322.90 631.80,323.35 628.50,323.51 C625.20,323.66 621.94,323.34 621.25,322.77 C620.36,322.05 620.00,317.86 620.00,308.32 C620.00,299.62 619.65,295.10 619.00,295.50 C618.36,295.90 617.94,291.72 617.83,283.81 L 617.66 271.50 L 616.94 281.50 C615.85,296.63 614.83,303.34 613.87,301.82 C613.25,300.85 613.01,301.03 612.94,302.50 C612.88,303.60 612.62,303.94 612.34,303.25 C611.64,301.52 607.00,301.65 607.00,303.39 C607.00,304.16 606.36,305.03 605.58,305.33 C604.80,305.63 604.01,306.87 603.83,308.09 C603.65,309.30 602.83,310.61 602.00,310.99 C597.46,313.09 596.50,313.90 596.00,316.00 C595.70,317.27 594.68,318.69 593.73,319.16 L 590.27 320.84 C589.32,321.31 588.30,322.73 588.00,324.00 C587.50,326.10 586.55,326.90 582.02,329.00 C581.21,329.38 580.30,330.73 580.00,332.00 C579.70,333.27 578.68,334.69 577.73,335.16 L 574.27 336.84 C573.32,337.31 572.30,338.73 572.00,340.00 C571.70,341.27 570.68,342.69 569.73,343.16 L 566.27 344.84 C565.32,345.31 564.30,346.73 564.00,348.00 C563.50,350.10 562.55,350.90 558.02,353.00 C557.21,353.38 556.30,354.73 556.00,356.00 C555.70,357.27 554.68,358.69 553.73,359.16 L 550.27 360.84 C549.32,361.31 548.30,362.73 548.00,364.00 C547.70,365.27 546.68,366.69 545.73,367.16 L 542.27 368.84 C541.32,369.31 540.30,370.73 540.00,372.00 C539.70,373.27 538.68,374.69 537.73,375.16 L 534.27 376.84 C533.32,377.31 532.30,378.73 532.00,380.00 C531.50,382.10 530.55,382.90 526.02,385.00 C525.21,385.38 524.30,386.73 524.00,388.00 C523.70,389.27 522.79,390.62 521.98,391.00 C517.45,393.10 516.50,393.90 516.00,396.00 C515.50,398.10 514.55,398.90 510.02,401.00 C509.21,401.38 508.30,402.73 508.00,404.00 C507.70,405.27 506.68,406.69 505.73,407.16 L 502.27 408.84 C501.32,409.31 500.30,410.73 500.00,412.00 C499.70,413.27 498.68,414.69 497.73,415.16 L 494.27 416.84 C493.32,417.31 492.30,418.73 492.00,420.00 C491.50,422.10 490.55,422.90 486.02,425.00 C485.21,425.38 484.30,426.73 484.00,428.00 C483.70,429.27 482.79,430.62 481.98,431.00 C477.45,433.10 476.50,433.90 476.00,436.00 C475.50,438.10 474.53,438.92 470.00,441.01 C469.17,441.39 468.36,442.88 468.19,444.32 C467.93,446.47 467.22,447.04 464.19,447.55 C458.34,448.52 458.23,448.70 463.00,449.36 C469.87,450.32 498.62,451.12 551.50,451.85 L 599.50 452.50 L 605.22 455.18 L 599.50 452.50 L 489.50 451.73 C429.00,451.31 375.90,450.74 371.50,450.47 C362.98,449.94 358.56,450.78 350.46,454.47 C343.68,457.57 339.58,461.18 335.29,467.89 C328.67,478.22 328.03,480.39 328.14,492.50 C328.20,499.54 328.51,502.42 328.98,500.50 C329.39,498.85 329.90,529.47 330.12,568.55 L 330.50 639.61 L 334.29 647.27 C336.38,651.49 339.26,656.35 340.71,658.06 C340.84,658.22 340.98,658.38 341.13,658.55 C337.18,654.73 333.79,650.69 332.15,647.50 C328.86,641.10 327.27,634.07 328.88,633.07 C329.81,632.50 329.88,632.04 329.11,631.57 C328.36,631.11 328.00,624.72 328.00,612.00 C328.00,600.49 327.61,592.88 327.00,592.50 C326.45,592.16 325.92,588.42 325.82,584.19 L 325.65 576.50 L 324.41 590.50 L 323.37 579.50 L 322.65 591.50 L 322.00 584.50 C321.37,577.68 321.35,577.78 321.18,588.01 C321.01,597.87 320.86,598.59 318.75,599.51 C317.41,600.10 316.30,601.66 316.00,603.39 C315.55,606.02 314.67,606.84 310.02,609.00 C309.21,609.38 308.30,610.73 308.00,612.00 C307.70,613.27 306.68,614.69 305.73,615.16 L 302.27 616.84 C301.32,617.31 300.30,618.73 300.00,620.00 C299.70,621.27 298.68,622.69 297.73,623.16 L 294.27 624.84 C293.32,625.31 292.30,626.73 292.00,628.00 C291.50,630.10 290.55,630.90 286.02,633.00 C285.21,633.38 284.30,634.73 284.00,636.00 C283.50,638.10 282.55,638.90 278.02,641.00 C277.21,641.38 276.30,642.73 276.00,644.00 C275.70,645.27 274.79,646.62 273.98,647.00 C269.45,649.10 268.50,649.90 268.00,652.00 C267.50,654.10 266.55,654.90 262.02,657.00 C261.21,657.38 260.30,658.73 260.00,660.00 C259.70,661.27 258.68,662.69 257.73,663.16 L 254.27 664.84 C253.32,665.31 252.30,666.73 252.00,668.00 C251.46,670.28 250.21,671.33 246.73,672.41 C245.75,672.71 244.71,673.75 244.41,674.73 C243.35,678.15 242.22,679.50 240.67,679.22 C239.81,679.06 238.52,679.96 237.80,681.22 C236.59,683.35 236.46,683.13 235.91,678.00 L 235.33 672.50 L 235.16 679.68 C235.05,684.55 234.52,687.34 233.50,688.36 C232.62,689.24 232.24,693.41 232.10,712.93 C232.12,701.33 232.14,688.61 232.18,674.63 C232.41,574.10 232.80,537.74 233.63,537.21 C234.26,536.82 234.99,535.60 235.27,534.50 C235.71,532.74 235.78,532.78 235.88,534.83 C236.05,538.15 238.27,537.03 239.62,532.96 C240.64,529.86 241.46,529.10 245.98,527.00 C246.79,526.62 247.70,525.27 248.00,524.00 C248.30,522.73 249.21,521.38 250.02,521.00 C255.44,518.48 255.49,518.41 256.00,512.00 C256.37,507.33 256.95,505.48 258.25,504.85 C259.21,504.38 260.78,503.62 261.73,503.16 C262.68,502.69 263.70,501.27 264.00,500.00 C264.30,498.73 265.32,497.31 266.27,496.84 L 269.73 495.16 C270.68,494.69 271.70,493.27 272.00,492.00 C272.50,489.90 273.45,489.10 277.98,487.00 C278.79,486.62 279.70,485.27 280.00,484.00 C280.30,482.73 281.32,481.31 282.27,480.84 L 285.73 479.16 C286.68,478.69 287.70,477.27 288.00,476.00 C288.30,474.73 289.21,473.38 290.02,473.00 C294.55,470.90 295.50,470.10 296.00,468.00 C296.30,466.73 297.32,465.31 298.27,464.84 L 301.73 463.16 C302.68,462.69 303.70,461.27 304.00,460.00 C304.30,458.73 305.32,457.31 306.27,456.84 L 309.73 455.16 C310.68,454.69 311.70,453.27 312.00,452.00 C312.30,450.73 313.32,449.31 314.27,448.84 C315.22,448.38 316.79,447.61 317.75,447.14 C318.71,446.67 319.67,445.43 319.87,444.39 C320.07,443.35 321.08,441.31 322.12,439.85 C323.15,438.39 324.00,436.53 324.00,435.72 C324.00,433.94 325.82,432.34 328.39,431.86 C329.43,431.66 330.67,430.71 331.14,429.75 C331.61,428.79 332.38,427.22 332.84,426.27 C333.31,425.32 334.73,424.30 336.00,424.00 C337.27,423.70 338.69,422.68 339.16,421.73 L 340.84 418.27 C341.31,417.32 342.73,416.30 344.00,416.00 C345.27,415.70 346.69,414.68 347.16,413.73 L 348.84 410.27 C349.31,409.32 350.73,408.30 352.00,408.00 C353.27,407.70 354.69,406.68 355.16,405.73 L 356.84 402.27 C357.31,401.32 358.73,400.30 360.00,400.00 C361.27,399.70 362.69,398.68 363.16,397.73 L 364.84 394.27 C365.31,393.32 366.73,392.30 368.00,392.00 C369.27,391.70 370.62,390.79 371.00,389.98 C373.10,385.45 373.90,384.50 376.00,384.00 C377.27,383.70 378.62,382.79 379.00,381.98 C381.10,377.45 381.90,376.50 384.00,376.00 C386.10,375.50 386.90,374.55 389.00,370.02 C389.38,369.21 390.73,368.30 392.00,368.00 C394.10,367.50 394.90,366.55 397.00,362.02 C397.38,361.21 398.73,360.30 400.00,360.00 C402.10,359.50 402.90,358.55 405.00,354.02 C405.38,353.21 406.73,352.30 408.00,352.00 C409.27,351.70 410.69,350.68 411.16,349.73 L 412.84 346.27 C413.31,345.32 414.73,344.30 416.00,344.00 C418.10,343.50 418.90,342.55 421.00,338.02 C421.38,337.21 422.73,336.30 424.00,336.00 C426.10,335.50 426.90,334.55 429.00,330.02 C429.38,329.21 430.73,328.30 432.00,328.00 C433.27,327.70 434.69,326.68 435.16,325.73 L 436.84 322.27 C437.31,321.32 438.73,320.30 440.00,320.00 C442.10,319.50 442.90,318.55 445.00,314.02 C445.38,313.21 446.73,312.30 448.00,312.00 C450.10,311.50 450.90,310.55 453.00,306.02 C453.38,305.21 454.73,304.30 456.00,304.00 C457.27,303.70 458.62,302.79 459.00,301.98 C461.37,296.87 461.82,296.49 466.00,296.00 C468.45,295.72 470.60,294.85 470.99,294.00 C473.09,289.47 473.90,288.50 476.00,288.00 C478.10,287.50 478.90,286.55 481.00,282.02 C481.38,281.21 482.73,280.30 484.00,280.00 C485.27,279.70 486.69,278.68 487.16,277.73 L 488.84 274.27 C489.31,273.32 490.73,272.30 492.00,272.00 C493.27,271.70 494.69,270.68 495.16,269.73 L 496.84 266.27 C497.31,265.32 498.73,264.30 500.00,264.00 C501.27,263.70 502.69,262.68 503.16,261.73 L 504.84 258.27 C505.31,257.32 506.73,256.30 508.00,256.00 C509.27,255.70 510.69,254.68 511.16,253.73 L 512.84 250.27 C513.31,249.32 514.73,248.30 516.00,248.00 C517.27,247.70 518.69,246.68 519.16,245.73 L 520.84 242.27 C521.31,241.32 522.73,240.30 524.00,240.00 C525.27,239.70 526.69,238.68 527.16,237.73 C527.62,236.78 528.39,235.21 528.86,234.25 C529.33,233.29 530.57,232.34 531.61,232.14 C535.14,231.48 536.00,229.87 536.00,224.00 C536.00,218.13 536.86,216.52 540.39,215.86 C541.43,215.66 542.67,214.71 543.14,213.75 C543.61,212.79 544.38,211.22 544.84,210.27 C545.31,209.32 546.73,208.30 548.00,208.00 C550.10,207.50 550.90,206.55 553.00,202.02 C553.38,201.21 554.73,200.30 556.00,200.00 C557.27,199.70 558.69,198.68 559.16,197.73 L 560.84 194.27 C561.31,193.32 562.73,192.30 564.00,192.00 C565.27,191.70 566.62,190.79 567.00,189.98 C569.10,185.45 569.90,184.50 572.00,184.00 C573.27,183.70 574.62,182.79 575.00,181.98 C577.10,177.45 577.90,176.50 580.00,176.00 C581.27,175.70 582.62,174.79 583.00,173.98 C585.10,169.45 585.90,168.50 588.00,168.00 C589.27,167.70 590.69,166.68 591.16,165.73 C591.62,164.78 592.35,163.27 592.78,162.37 C593.21,161.47 595.09,160.24 596.96,159.62 C600.82,158.35 601.98,156.39 599.31,155.70 C597.88,155.33 597.97,155.21 599.75,155.12 C600.99,155.05 602.00,154.55 602.00,154.00 C602.00,153.41 605.64,153.00 610.92,153.00 L 619.85 153.00 L 620.08 181.25 C620.21,196.79 620.37,212.65 620.45,216.50 C620.52,220.35 620.97,245.19 621.44,271.69 C621.92,298.20 622.68,320.48 623.12,321.19 C623.78,322.26 639.63,322.44 707.96,322.19 ZM 427.15 747.65 C431.17,748.43 466.18,748.71 548.50,748.62 L 655.52 748.51 L 655.05 748.52 L 549.50 748.72 C471.22,748.88 431.78,748.61 428.20,747.89 C427.86,747.83 427.51,747.75 427.15,747.65 ZM 401.80 729.95 C404.74,734.00 408.00,737.40 411.58,740.16 C409.89,739.01 408.39,737.83 407.21,736.69 C405.94,735.48 403.83,732.81 401.80,729.95 ZM 233.57 828.91 L 233.58 828.91 C234.06,833.32 234.68,836.25 235.48,838.59 C236.48,841.55 237.64,844.29 238.94,846.82 C237.67,844.36 236.53,841.70 235.53,838.82 C234.70,836.47 234.06,833.74 233.57,828.91 ZM 350.90 666.64 C353.50,668.39 356.02,669.80 357.80,670.42 C355.84,669.74 353.44,668.40 350.90,666.64 ZM 250.51 861.11 C252.25,862.48 254.12,863.71 256.12,864.79 C254.05,863.67 252.13,862.40 250.33,860.98 C250.39,861.02 250.45,861.07 250.51,861.11 ZM 242.99 853.37 C244.21,855.01 245.53,856.54 246.94,857.95 C246.96,857.98 246.99,858.00 247.01,858.02 C245.57,856.60 244.23,855.04 242.99,853.37 ZM 233.40 827.06 L 233.40 827.06 Z" fill="rgb(74,150,249)"/>
<path d="M 622.54 312.57 C622.16,303.57 621.75,288.48 621.44,271.69 C620.97,245.19 620.52,220.35 620.45,216.50 C620.37,212.65 620.21,196.79 620.08,181.25 L 619.85 153.00 L 610.92 153.00 C605.64,153.00 602.00,153.41 602.00,154.00 C602.00,154.55 600.99,155.05 599.75,155.12 C597.97,155.21 597.88,155.33 599.31,155.70 C601.98,156.39 600.82,158.35 596.96,159.62 C595.09,160.24 593.21,161.47 592.78,162.37 C592.35,163.27 591.62,164.78 591.16,165.73 C590.69,166.68 589.27,167.70 588.00,168.00 C585.90,168.50 585.10,169.45 583.00,173.98 C582.62,174.79 581.27,175.70 580.00,176.00 C577.90,176.50 577.10,177.45 575.00,181.98 C574.62,182.79 573.27,183.70 572.00,184.00 C569.90,184.50 569.10,185.45 567.00,189.98 C566.62,190.79 565.27,191.70 564.00,192.00 C562.73,192.30 561.31,193.32 560.84,194.27 L 559.16 197.73 C558.69,198.68 557.27,199.70 556.00,200.00 C554.73,200.30 553.38,201.21 553.00,202.02 C550.90,206.55 550.10,207.50 548.00,208.00 C546.73,208.30 545.31,209.32 544.84,210.27 C544.38,211.22 543.61,212.79 543.14,213.75 C542.67,214.71 541.43,215.66 540.39,215.86 C536.86,216.52 536.00,218.13 536.00,224.00 C536.00,229.87 535.14,231.48 531.61,232.14 C530.57,232.34 529.33,233.29 528.86,234.25 C528.39,235.21 527.62,236.78 527.16,237.73 C526.69,238.68 525.27,239.70 524.00,240.00 C522.73,240.30 521.31,241.32 520.84,242.27 L 519.16 245.73 C518.69,246.68 517.27,247.70 516.00,248.00 C514.73,248.30 513.31,249.32 512.84,250.27 L 511.16 253.73 C510.69,254.68 509.27,255.70 508.00,256.00 C506.73,256.30 505.31,257.32 504.84,258.27 L 503.16 261.73 C502.69,262.68 501.27,263.70 500.00,264.00 C498.73,264.30 497.31,265.32 496.84,266.27 L 495.16 269.73 C494.69,270.68 493.27,271.70 492.00,272.00 C490.73,272.30 489.31,273.32 488.84,274.27 L 487.16 277.73 C486.69,278.68 485.27,279.70 484.00,280.00 C482.73,280.30 481.38,281.21 481.00,282.02 C478.90,286.55 478.10,287.50 476.00,288.00 C473.90,288.50 473.09,289.47 470.99,294.00 C470.60,294.85 468.45,295.72 466.00,296.00 C461.82,296.49 461.37,296.87 459.00,301.98 C458.62,302.79 457.27,303.70 456.00,304.00 C454.73,304.30 453.38,305.21 453.00,306.02 C450.90,310.55 450.10,311.50 448.00,312.00 C446.73,312.30 445.38,313.21 445.00,314.02 C442.90,318.55 442.10,319.50 440.00,320.00 C438.73,320.30 437.31,321.32 436.84,322.27 L 435.16 325.73 C434.69,326.68 433.27,327.70 432.00,328.00 C430.73,328.30 429.38,329.21 429.00,330.02 C426.90,334.55 426.10,335.50 424.00,336.00 C422.73,336.30 421.38,337.21 421.00,338.02 C418.90,342.55 418.10,343.50 416.00,344.00 C414.73,344.30 413.31,345.32 412.84,346.27 L 411.16 349.73 C410.69,350.68 409.27,351.70 408.00,352.00 C406.73,352.30 405.38,353.21 405.00,354.02 C402.90,358.55 402.10,359.50 400.00,360.00 C398.73,360.30 397.38,361.21 397.00,362.02 C394.90,366.55 394.10,367.50 392.00,368.00 C390.73,368.30 389.38,369.21 389.00,370.02 C386.90,374.55 386.10,375.50 384.00,376.00 C381.90,376.50 381.10,377.45 379.00,381.98 C378.62,382.79 377.27,383.70 376.00,384.00 C373.90,384.50 373.10,385.45 371.00,389.98 C370.62,390.79 369.27,391.70 368.00,392.00 C366.73,392.30 365.31,393.32 364.84,394.27 L 363.16 397.73 C362.69,398.68 361.27,399.70 360.00,400.00 C358.73,400.30 357.31,401.32 356.84,402.27 L 355.16 405.73 C354.69,406.68 353.27,407.70 352.00,408.00 C350.73,408.30 349.31,409.32 348.84,410.27 L 347.16 413.73 C346.69,414.68 345.27,415.70 344.00,416.00 C342.73,416.30 341.31,417.32 340.84,418.27 L 339.16 421.73 C338.69,422.68 337.27,423.70 336.00,424.00 C334.73,424.30 333.31,425.32 332.84,426.27 C332.38,427.22 331.61,428.79 331.14,429.75 C330.67,430.71 329.43,431.66 328.39,431.86 C325.82,432.34 324.00,433.94 324.00,435.72 C324.00,436.53 323.15,438.39 322.12,439.85 C321.08,441.31 320.07,443.35 319.87,444.39 C319.67,445.43 318.71,446.67 317.75,447.14 C316.79,447.61 315.22,448.38 314.27,448.84 C313.32,449.31 312.30,450.73 312.00,452.00 C311.70,453.27 310.68,454.69 309.73,455.16 L 306.27 456.84 C305.32,457.31 304.30,458.73 304.00,460.00 C303.70,461.27 302.68,462.69 301.73,463.16 L 298.27 464.84 C297.32,465.31 296.30,466.73 296.00,468.00 C295.50,470.10 294.55,470.90 290.02,473.00 C289.21,473.38 288.30,474.73 288.00,476.00 C287.70,477.27 286.68,478.69 285.73,479.16 L 282.27 480.84 C281.32,481.31 280.30,482.73 280.00,484.00 C279.70,485.27 278.79,486.62 277.98,487.00 C273.45,489.10 272.50,489.90 272.00,492.00 C271.70,493.27 270.68,494.69 269.73,495.16 L 266.27 496.84 C265.32,497.31 264.30,498.73 264.00,500.00 C263.70,501.27 262.68,502.69 261.73,503.16 C260.78,503.62 259.21,504.38 258.25,504.85 C256.95,505.48 256.37,507.33 256.00,512.00 C255.49,518.41 255.44,518.48 250.02,521.00 C249.21,521.38 248.30,522.73 248.00,524.00 C247.70,525.27 246.79,526.62 245.98,527.00 C241.46,529.10 240.64,529.86 239.62,532.96 C238.27,537.03 236.05,538.15 235.88,534.83 C235.78,532.78 235.71,532.74 235.27,534.50 C234.99,535.60 234.26,536.82 233.63,537.21 C232.80,537.74 232.41,574.10 232.18,674.63 C232.17,676.85 232.17,679.04 232.16,681.19 C232.00,563.99 232.28,416.42 232.99,409.00 C233.44,404.33 234.26,398.92 234.80,397.00 L 235.80 393.50 L 236.03 397.00 L 236.26 400.50 L 236.88 397.04 C237.35,394.42 238.11,393.44 240.00,393.00 C241.73,392.60 242.85,391.36 243.62,388.99 C244.64,385.87 245.45,385.10 249.98,383.00 C250.79,382.62 251.70,381.27 252.00,380.00 C252.30,378.73 253.21,377.38 254.02,377.00 C258.52,374.91 259.53,374.11 259.86,372.39 C260.47,369.17 262.10,368.00 266.00,368.00 C269.90,368.00 271.53,366.83 272.14,363.61 C272.47,361.89 273.48,361.09 277.98,359.00 C278.79,358.62 279.70,357.27 280.00,356.00 C280.30,354.73 281.32,353.31 282.27,352.84 L 285.73 351.16 C286.68,350.69 287.70,349.27 288.00,348.00 C288.30,346.73 289.32,345.31 290.27,344.84 L 293.73 343.16 C294.68,342.69 295.70,341.27 296.00,340.00 C296.50,337.90 297.45,337.10 301.98,335.00 C302.79,334.62 303.70,333.27 304.00,332.00 C304.50,329.90 305.45,329.10 309.98,327.00 C310.79,326.62 311.70,325.27 312.00,324.00 C312.30,322.73 313.21,321.38 314.02,321.00 C318.55,318.90 319.50,318.10 320.00,316.00 C320.30,314.73 321.32,313.31 322.27,312.84 L 325.73 311.16 C326.68,310.69 327.70,309.27 328.00,308.00 C328.50,305.90 329.46,305.09 334.00,302.99 C335.01,302.52 335.66,300.25 336.00,296.00 C336.34,291.75 336.99,289.48 338.00,289.01 C342.54,286.91 343.50,286.10 344.00,284.00 C344.30,282.73 345.32,281.31 346.27,280.84 L 349.73 279.16 C350.68,278.69 351.70,277.27 352.00,276.00 C352.30,274.73 353.21,273.38 354.02,273.00 C358.55,270.90 359.50,270.10 360.00,268.00 C360.30,266.73 361.32,265.31 362.27,264.84 L 365.73 263.16 C366.68,262.69 367.70,261.27 368.00,260.00 C368.30,258.73 369.32,257.31 370.27,256.84 L 373.73 255.16 C374.68,254.69 375.70,253.27 376.00,252.00 C376.30,250.73 377.32,249.31 378.27,248.84 L 381.73 247.16 C382.68,246.69 383.70,245.27 384.00,244.00 C384.50,241.90 385.45,241.10 389.98,239.00 C390.79,238.62 391.70,237.27 392.00,236.00 C392.30,234.73 393.32,233.31 394.27,232.84 C395.22,232.38 396.79,231.61 397.75,231.14 C398.71,230.67 399.66,229.43 399.85,228.39 C400.05,227.35 400.86,225.76 401.66,224.86 C402.46,223.95 403.45,221.96 403.86,220.43 C404.27,218.90 405.37,217.28 406.30,216.83 C407.24,216.37 408.79,215.62 409.75,215.15 C410.71,214.68 411.64,213.35 411.81,212.20 C412.02,210.84 413.32,209.72 415.55,208.98 C418.13,208.13 419.18,207.08 419.78,204.76 C420.22,203.06 421.35,201.29 422.29,200.83 C423.23,200.37 424.79,199.62 425.75,199.15 C426.71,198.68 427.64,197.35 427.81,196.20 C428.02,194.84 429.32,193.72 431.55,192.98 C434.13,192.13 435.18,191.08 435.78,188.76 C436.51,185.94 437.40,185.12 442.00,182.99 C442.83,182.61 443.64,181.35 443.81,180.20 C444.02,178.84 445.32,177.72 447.55,176.98 C450.13,176.13 451.18,175.08 451.78,172.76 C452.22,171.06 453.35,169.29 454.29,168.83 C455.23,168.37 456.79,167.62 457.75,167.15 C458.71,166.68 459.64,165.33 459.82,164.15 C460.12,162.13 461.20,161.59 466.50,160.77 C467.92,160.55 468.51,159.68 468.54,157.74 C468.57,156.24 469.15,154.45 469.84,153.76 C470.82,152.78 487.77,152.43 546.80,152.16 L 622.50 151.82 L 622.26 235.66 C622.15,272.71 622.25,299.69 622.54,312.57 ZM 489.50 451.73 L 599.21 452.50 L 485.52 452.23 C418.64,452.07 368.76,452.34 364.80,452.89 C345.78,455.53 333.13,468.95 330.91,488.85 C330.34,493.97 330.05,526.98 330.22,568.60 L 330.50 639.61 L 330.12 568.55 C329.90,529.47 329.39,498.85 328.98,500.50 C328.51,502.42 328.20,499.54 328.14,492.50 C328.03,480.39 328.67,478.22 335.29,467.89 C339.58,461.18 343.68,457.57 350.46,454.47 C358.56,450.78 362.98,449.94 371.50,450.47 C375.90,450.74 429.00,451.31 489.50,451.73 ZM 238.04 845.00 C238.33,845.62 238.63,846.23 238.94,846.82 C240.16,849.19 241.51,851.37 242.99,853.37 C244.24,855.05 245.57,856.60 247.01,858.02 C247.90,858.99 249.03,859.99 250.33,860.98 C252.13,862.40 254.05,863.67 256.12,864.79 C256.34,864.91 256.56,865.03 256.78,865.15 C257.34,865.44 257.91,865.73 258.50,866.00 C249.08,861.59 242.31,854.66 238.04,845.00 ZM 233.40 827.06 C233.37,827.10 233.35,827.13 233.33,827.16 C233.21,826.23 233.10,825.27 233.01,824.31 C232.93,823.56 232.87,821.38 232.80,817.92 C232.96,821.39 233.15,824.31 233.38,826.81 ZM 625.98 321.76 C624.09,321.61 623.26,321.42 623.12,321.19 C623.11,321.18 623.10,321.16 623.10,321.13 C623.42,321.39 624.23,321.59 625.98,321.76 Z" fill="rgb(80,156,251)"/>
<path d="M 232.99 409.00 C232.57,413.42 232.30,467.58 232.18,535.43 C232.19,525.23 232.20,514.76 232.21,504.00 C232.49,207.08 232.56,196.28 234.37,190.01 C238.61,175.29 244.43,166.17 252.69,161.33 C255.20,159.86 261.14,157.27 265.88,155.58 L 274.50 152.50 L 448.50 152.22 L 584.02 151.99 L 546.80 152.16 C487.77,152.43 470.82,152.78 469.84,153.76 C469.15,154.45 468.57,156.24 468.54,157.74 C468.51,159.68 467.92,160.55 466.50,160.77 C461.20,161.59 460.12,162.13 459.82,164.15 C459.64,165.33 458.71,166.68 457.75,167.15 C456.79,167.62 455.23,168.37 454.29,168.83 C453.35,169.29 452.22,171.06 451.78,172.76 C451.18,175.08 450.13,176.13 447.55,176.98 C445.32,177.72 444.02,178.84 443.81,180.20 C443.64,181.35 442.83,182.61 442.00,182.99 C437.40,185.12 436.51,185.94 435.78,188.76 C435.18,191.08 434.13,192.13 431.55,192.98 C429.32,193.72 428.02,194.84 427.81,196.20 C427.64,197.35 426.71,198.68 425.75,199.15 C424.79,199.62 423.23,200.37 422.29,200.83 C421.35,201.29 420.22,203.06 419.78,204.76 C419.18,207.08 418.13,208.13 415.55,208.98 C413.32,209.72 412.02,210.84 411.81,212.20 C411.64,213.35 410.71,214.68 409.75,215.15 C408.79,215.62 407.24,216.37 406.30,216.83 C405.37,217.28 404.27,218.90 403.86,220.43 C403.45,221.96 402.46,223.95 401.66,224.86 C400.86,225.76 400.05,227.35 399.85,228.39 C399.66,229.43 398.71,230.67 397.75,231.14 C396.79,231.61 395.22,232.38 394.27,232.84 C393.32,233.31 392.30,234.73 392.00,236.00 C391.70,237.27 390.79,238.62 389.98,239.00 C385.45,241.10 384.50,241.90 384.00,244.00 C383.70,245.27 382.68,246.69 381.73,247.16 L 378.27 248.84 C377.32,249.31 376.30,250.73 376.00,252.00 C375.70,253.27 374.68,254.69 373.73,255.16 L 370.27 256.84 C369.32,257.31 368.30,258.73 368.00,260.00 C367.70,261.27 366.68,262.69 365.73,263.16 L 362.27 264.84 C361.32,265.31 360.30,266.73 360.00,268.00 C359.50,270.10 358.55,270.90 354.02,273.00 C353.21,273.38 352.30,274.73 352.00,276.00 C351.70,277.27 350.68,278.69 349.73,279.16 L 346.27 280.84 C345.32,281.31 344.30,282.73 344.00,284.00 C343.50,286.10 342.54,286.91 338.00,289.01 C336.99,289.48 336.34,291.75 336.00,296.00 C335.66,300.25 335.01,302.52 334.00,302.99 C329.46,305.09 328.50,305.90 328.00,308.00 C327.70,309.27 326.68,310.69 325.73,311.16 L 322.27 312.84 C321.32,313.31 320.30,314.73 320.00,316.00 C319.50,318.10 318.55,318.90 314.02,321.00 C313.21,321.38 312.30,322.73 312.00,324.00 C311.70,325.27 310.79,326.62 309.98,327.00 C305.45,329.10 304.50,329.90 304.00,332.00 C303.70,333.27 302.79,334.62 301.98,335.00 C297.45,337.10 296.50,337.90 296.00,340.00 C295.70,341.27 294.68,342.69 293.73,343.16 L 290.27 344.84 C289.32,345.31 288.30,346.73 288.00,348.00 C287.70,349.27 286.68,350.69 285.73,351.16 L 282.27 352.84 C281.32,353.31 280.30,354.73 280.00,356.00 C279.70,357.27 278.79,358.62 277.98,359.00 C273.48,361.09 272.47,361.89 272.14,363.61 C271.53,366.83 269.90,368.00 266.00,368.00 C262.10,368.00 260.47,369.17 259.86,372.39 C259.53,374.11 258.52,374.91 254.02,377.00 C253.21,377.38 252.30,378.73 252.00,380.00 C251.70,381.27 250.79,382.62 249.98,383.00 C245.45,385.10 244.64,385.87 243.62,388.99 C242.85,391.36 241.73,392.60 240.00,393.00 C238.11,393.44 237.35,394.42 236.88,397.04 L 236.26 400.50 L 236.03 397.00 L 235.80 393.50 L 234.80 397.00 C234.26,398.92 233.44,404.33 232.99,409.00 ZM 232.74 816.50 C232.76,816.99 232.78,817.46 232.80,817.92 C232.83,819.43 232.86,820.69 232.89,821.70 C232.83,820.53 232.79,818.81 232.74,816.50 Z" fill="rgb(86,163,253)"/>
<path d="M 792.00 321.80 L 775.18 321.95 L 707.96 322.19 C654.22,322.39 632.94,322.32 625.98,321.76 C624.23,321.59 623.42,321.39 623.10,321.13 C622.94,320.62 622.74,317.52 622.54,312.57 C622.25,299.69 622.15,272.71 622.26,235.66 L 622.50 153.48 C623.93,153.79 624.41,154.16 624.49,154.61 C624.55,154.91 624.43,155.24 624.30,155.60 C624.27,155.68 624.24,155.77 624.21,155.86 C623.97,156.59 624.75,158.53 625.96,160.16 C627.81,162.66 627.94,163.36 626.82,164.72 C625.64,166.15 625.74,166.20 627.70,165.15 C629.71,164.08 630.69,164.75 639.11,172.95 C644.18,177.88 648.61,181.74 648.97,181.52 C649.32,181.30 650.49,182.30 651.56,183.73 C652.63,185.17 654.09,186.83 654.82,187.42 C657.88,189.93 662.00,194.36 662.00,195.15 C662.00,195.62 662.57,196.00 663.28,196.00 C663.98,196.00 667.68,199.15 671.50,203.00 C675.32,206.85 678.85,210.00 679.35,210.00 C679.85,210.00 705.40,235.07 736.13,265.71 L 792.00 321.42 ZM 630.91 498.63 C630.95,499.43 631.32,500.16 632.03,500.80 C631.47,500.45 631.10,500.18 631.00,500.04 C629.74,498.28 623.53,496.08 621.37,496.62 C618.93,497.23 618.54,496.57 618.99,492.52 C619.29,489.78 621.64,486.60 622.43,487.88 C622.78,488.45 622.77,490.05 622.42,491.45 C621.95,493.35 622.17,494.00 623.31,494.00 C624.51,494.00 624.84,492.68 624.87,487.79 C624.88,484.38 624.53,481.11 624.09,480.54 C623.64,479.97 623.00,478.36 622.67,476.96 C622.34,475.56 619.53,471.61 616.43,468.19 C610.85,462.02 601.43,456.37 593.50,454.44 C588.86,453.32 508.87,452.36 444.56,452.19 C457.21,452.18 470.97,452.19 485.52,452.23 L 599.21 452.50 L 599.50 452.50 L 605.22 455.18 C615.59,460.05 625.46,471.28 628.43,481.60 C629.20,484.30 630.14,489.73 630.51,493.67 C630.60,494.63 630.68,495.46 630.77,496.19 C630.83,497.13 630.89,497.95 630.91,498.63 ZM 330.18 557.41 C330.30,575.11 330.55,593.25 330.95,608.00 C331.83,640.52 332.25,642.93 338.37,650.41 C340.21,652.66 342.02,655.46 342.39,656.64 C342.76,657.82 344.40,659.34 346.03,660.01 C347.66,660.69 349.00,661.59 349.00,662.00 C349.00,662.42 351.38,663.89 354.28,665.27 C357.18,666.64 360.05,668.38 360.65,669.13 C360.89,669.44 361.16,670.36 361.40,671.66 L 357.80 670.42 C355.84,669.74 353.44,668.40 350.90,666.64 C347.68,664.42 344.23,661.55 341.13,658.55 C340.98,658.38 340.84,658.22 340.71,658.06 C339.26,656.35 336.38,651.49 334.29,647.27 L 330.50 639.61 L 330.22 568.60 C330.20,564.79 330.19,561.05 330.18,557.41 ZM 361.59 672.73 C361.87,674.52 362.11,676.79 362.25,679.11 C362.35,680.75 362.46,682.17 362.61,683.45 C362.43,682.27 362.29,681.06 362.18,679.81 ZM 379.06 711.08 C382.25,713.75 385.59,715.86 388.77,717.08 C385.09,715.67 382.40,714.04 379.06,711.08 ZM 350.41 457.55 C344.07,461.09 338.99,466.35 335.56,472.91 C338.97,466.30 344.02,461.07 350.41,457.55 ZM 364.98 692.26 C365.29,693.00 365.64,693.77 366.04,694.61 C367.17,696.97 368.60,699.34 370.25,701.60 C368.00,698.58 366.26,695.51 364.98,692.26 ZM 448.50 152.22 L 274.50 152.50 L 448.29 152.22 C448.36,152.22 448.43,152.22 448.50,152.22 ZM 634.41 502.17 C634.46,502.19 634.51,502.21 634.56,502.24 C634.64,502.28 634.72,502.33 634.80,502.38 C634.67,502.31 634.54,502.24 634.41,502.17 Z" fill="rgb(122,175,250)"/>
<path d="M 330.18 557.41 C330.11,521.17 330.39,493.50 330.91,488.85 C331.57,482.92 333.16,477.57 335.56,472.91 C338.99,466.35 344.07,461.09 350.41,457.55 C354.65,455.22 359.47,453.63 364.80,452.89 C367.90,452.46 399.10,452.20 444.56,452.19 C508.87,452.36 588.86,453.32 593.50,454.44 C601.43,456.37 610.85,462.02 616.43,468.19 C619.53,471.61 622.34,475.56 622.67,476.96 C623.00,478.36 623.64,479.97 624.09,480.54 C624.53,481.11 624.88,484.38 624.87,487.79 C624.84,492.68 624.51,494.00 623.31,494.00 C622.17,494.00 621.95,493.35 622.42,491.45 C622.77,490.05 622.78,488.45 622.43,487.88 C621.64,486.60 619.29,489.78 618.99,492.52 C618.54,496.57 618.93,497.23 621.37,496.62 C623.53,496.08 629.74,498.28 631.00,500.04 C631.09,500.16 631.39,500.39 631.85,500.68 L 631.50 500.50 L 516.11 500.23 C439.80,500.04 398.82,500.30 395.11,500.98 C387.20,502.44 380.08,506.21 374.11,512.09 C368.18,517.92 365.79,522.15 363.55,530.82 C362.13,536.30 361.97,545.79 362.22,612.26 L 362.48 682.19 C362.39,681.25 362.32,680.23 362.25,679.11 C362.11,676.79 361.87,674.52 361.59,672.73 L 361.50 671.70 L 361.40 671.66 C361.16,670.36 360.89,669.44 360.65,669.13 C360.05,668.38 357.18,666.64 354.28,665.27 C351.38,663.89 349.00,662.42 349.00,662.00 C349.00,661.59 347.66,660.69 346.03,660.01 C344.40,659.34 342.76,657.82 342.39,656.64 C342.02,655.46 340.21,652.66 338.37,650.41 C332.25,642.93 331.83,640.52 330.95,608.00 C330.55,593.25 330.30,575.11 330.18,557.41 ZM 622.50 152.09 L 707.16 236.72 L 754.94 284.47 L 736.13 265.71 C705.40,235.07 679.85,210.00 679.35,210.00 C678.85,210.00 675.32,206.85 671.50,203.00 C667.68,199.15 663.98,196.00 663.28,196.00 C662.57,196.00 662.00,195.62 662.00,195.15 C662.00,194.36 657.88,189.93 654.82,187.42 C654.09,186.83 652.63,185.17 651.56,183.73 C650.49,182.30 649.32,181.30 648.97,181.52 C648.61,181.74 644.18,177.88 639.11,172.95 C630.69,164.75 629.71,164.08 627.70,165.15 C625.74,166.20 625.64,166.15 626.82,164.72 C627.94,163.36 627.81,162.66 625.96,160.16 C624.75,158.53 623.97,156.59 624.21,155.86 C624.24,155.77 624.27,155.68 624.30,155.60 C624.43,155.24 624.55,154.91 624.49,154.61 C624.41,154.16 623.93,153.79 622.50,153.48 ZM 378.90 710.93 C381.61,713.23 384.44,715.12 387.01,716.36 C384.18,715.09 381.85,713.55 379.06,711.08 ZM 448.50 152.22 L 448.43 152.22 L 584.02 151.99 Z" fill="rgb(135,184,250)"/>
<path d="M 642.04 506.46 C642.97,507.09 643.88,507.76 644.77,508.44 C644.86,508.50 644.94,508.57 645.03,508.63 C647.60,510.62 649.95,512.77 651.71,514.81 C651.71,514.81 651.72,514.81 651.72,514.82 C655.88,520.05 660.04,527.22 660.95,531.32 C661.03,531.65 661.11,532.01 661.20,532.40 L 661.20 532.42 C661.35,533.23 661.48,534.06 661.59,534.95 C661.63,535.31 661.67,535.69 661.71,536.07 C661.83,537.26 661.92,538.54 662.00,539.94 L 662.50 549.38 L 662.81 549.45 C658.75,548.85 652.68,548.35 646.00,548.09 L 630.50 547.50 L 630.24 525.00 C630.01,505.28 629.77,502.35 628.30,501.25 C627.85,500.92 617.95,500.64 602.45,500.43 L 631.50 500.50 L 631.85 500.68 C631.90,500.72 631.96,500.76 632.03,500.80 C632.06,500.83 632.09,500.85 632.12,500.88 C632.56,501.34 633.14,501.64 633.97,501.99 C634.20,502.08 634.30,502.13 634.41,502.17 C634.54,502.24 634.67,502.31 634.80,502.38 C635.51,502.80 636.33,503.25 637.25,503.73 C638.75,504.50 640.44,505.47 642.04,506.46 ZM 393.51 719.26 L 393.51 719.26 C392.82,718.82 392.03,718.43 391.08,718.02 C391.02,717.99 390.95,717.96 390.88,717.93 C390.26,717.66 389.56,717.39 388.77,717.08 C386.64,716.26 384.43,715.04 382.25,713.52 C381.13,712.74 380.00,711.87 378.90,710.93 C377.97,710.09 376.98,709.15 375.91,708.08 C373.74,705.92 371.86,703.77 370.25,701.60 C368.60,699.34 367.17,696.97 366.04,694.61 C365.64,693.77 365.29,693.00 364.98,692.26 C363.88,689.49 363.10,686.58 362.61,683.45 C362.57,683.05 362.52,682.63 362.48,682.19 L 362.42 664.78 C362.65,669.96 363.02,671.18 363.58,671.39 C364.45,671.73 371.65,672.00 379.58,672.00 L 394.00 672.00 L 394.04 691.25 C394.07,711.83 394.90,718.65 399.05,725.84 C396.18,721.32 395.10,719.78 393.51,719.26 ZM 395.25 500.96 C396.35,500.80 399.57,500.66 404.89,500.55 C399.91,500.67 396.56,500.81 395.25,500.96 ZM 385.34 504.15 C381.27,506.09 377.48,508.76 374.11,512.09 C377.50,508.74 381.27,506.09 385.34,504.15 Z" fill="rgb(168,201,251)"/>
<path d="M 385.34 504.15 C388.43,502.67 391.69,501.61 395.11,500.98 C395.15,500.98 395.20,500.97 395.25,500.96 C396.56,500.81 399.91,500.67 404.89,500.55 L 404.89 500.55 C421.58,500.20 458.93,500.09 516.11,500.23 L 602.45 500.43 C617.95,500.64 627.85,500.92 628.30,501.25 C629.77,502.35 630.01,505.28 630.24,525.00 L 630.50 547.50 L 646.00 548.09 C648.95,548.20 651.77,548.36 654.36,548.56 C642.02,548.05 613.58,548.03 541.00,548.21 L 424.50 548.50 L 418.00 551.60 C408.96,555.90 402.23,562.30 398.00,570.62 L 394.50 577.50 L 394.17 642.50 C393.98,681.37 394.11,701.75 394.64,710.49 C394.20,705.72 394.05,699.63 394.04,691.25 L 394.00 672.00 L 379.58 672.00 C371.65,672.00 364.45,671.73 363.58,671.39 C363.02,671.18 362.65,669.96 362.42,664.78 L 362.22 612.26 C362.09,578.32 362.07,559.24 362.27,547.96 L 362.27 547.96 C362.49,537.41 362.88,533.48 363.55,530.82 C363.55,530.79 363.56,530.76 363.57,530.73 C365.81,522.12 368.20,517.90 374.11,512.09 C377.48,508.76 381.27,506.09 385.33,504.15 ZM 668.69 550.98 C671.13,551.80 673.58,552.91 675.58,554.07 C673.63,552.99 671.16,551.91 668.34,550.95 C668.46,550.96 668.57,550.97 668.69,550.98 ZM 396.02 718.66 C396.81,721.24 397.91,723.77 399.27,726.19 L 399.05 725.84 C397.73,723.56 396.75,721.32 396.02,718.66 ZM 410.16 739.02 C410.76,739.51 411.38,739.99 412.01,740.46 C411.86,740.36 411.72,740.26 411.58,740.16 C411.10,739.79 410.62,739.41 410.16,739.02 ZM 666.68 550.41 C666.31,550.28 666.45,550.32 666.59,550.35 C666.62,550.37 666.65,550.39 666.68,550.41 Z" fill="rgb(199,221,253)"/>
<path d="M 0.00 512.00 L 0.00 0.00 L 512.00 0.00 L 1024.00 0.00 L 1024.00 512.00 L 1024.00 1024.00 L 512.00 1024.00 L 0.00 1024.00 L 0.00 512.00 ZM 748.07 870.49 C759.98,868.58 766.80,866.37 770.05,863.36 C771.46,862.06 773.06,861.00 773.62,861.00 C775.67,861.00 784.86,848.98 787.11,843.36 C787.74,841.79 789.08,835.78 790.08,830.00 C791.81,820.04 791.90,806.76 791.95,570.50 L 791.99 321.50 L 707.16 236.72 L 622.34 151.93 L 448.42 152.22 L 274.50 152.50 L 265.88 155.58 C261.14,157.27 255.20,159.86 252.69,161.33 C244.43,166.17 238.61,175.29 234.37,190.01 C232.56,196.28 232.49,207.08 232.21,504.00 C232.01,712.43 232.26,815.21 232.97,823.00 C233.54,829.33 234.69,836.45 235.53,838.82 C240.19,852.15 247.60,860.90 258.54,866.02 C271.79,872.22 255.33,871.83 507.57,871.92 C709.17,871.99 739.85,871.81 748.07,870.49 ZM 427.00 747.62 C411.20,743.68 397.59,729.59 395.03,714.50 C394.17,709.44 393.94,689.46 394.17,642.50 L 394.50 577.50 L 398.00 570.62 C402.23,562.30 408.96,555.90 418.00,551.60 L 424.50 548.50 L 541.00 548.21 C644.27,547.96 658.18,548.10 663.50,549.49 C671.96,551.71 678.71,555.11 679.94,557.78 C680.51,559.03 681.65,560.31 682.47,560.63 C685.64,561.84 691.73,572.53 693.38,579.75 C695.77,590.29 695.81,706.16 693.42,717.73 C691.06,729.16 683.49,738.65 671.49,745.22 L 665.50 748.50 L 548.50 748.62 C465.04,748.71 430.21,748.42 427.00,747.62 Z" fill="rgb(254,254,254)"/>
</g>
</svg>